<?xml version="1.0" encoding="UTF-8" standalone="no"?>
<!-- Created with Inkscape (http://www.inkscape.org/) -->

<svg
   xmlns:dc="http://purl.org/dc/elements/1.1/"
   xmlns:cc="http://creativecommons.org/ns#"
   xmlns:rdf="http://www.w3.org/1999/02/22-rdf-syntax-ns#"
   xmlns:svg="http://www.w3.org/2000/svg"
   xmlns="http://www.w3.org/2000/svg"
   xmlns:sodipodi="http://sodipodi.sourceforge.net/DTD/sodipodi-0.dtd"
   xmlns:inkscape="http://www.inkscape.org/namespaces/inkscape"
   width="650"
   height="300"
   id="svg4063"
   version="1.1"
   inkscape:version="0.48.3.1 r9886"
   sodipodi:docname="consistency_stability_convergence.png"
   inkscape:export-filename="/home/uwhpsc/Programs/sphinx/thevisualroom/_images/v_con_4.png"
   inkscape:export-xdpi="90"
   inkscape:export-ydpi="90">
  <defs
     id="defs4065" />
  <sodipodi:namedview
     id="base"
     pagecolor="#ffffff"
     bordercolor="#666666"
     borderopacity="1.0"
     inkscape:pageopacity="0.0"
     inkscape:pageshadow="2"
     inkscape:zoom="0.98994949"
     inkscape:cx="254.08655"
     inkscape:cy="246.96145"
     inkscape:document-units="px"
     inkscape:current-layer="layer1"
     showgrid="false"
     inkscape:window-width="1190"
     inkscape:window-height="796"
     inkscape:window-x="0"
     inkscape:window-y="31"
     inkscape:window-maximized="1" />
  <metadata
     id="metadata4068">
    <rdf:RDF>
      <cc:Work
         rdf:about="">
        <dc:format>image/svg+xml</dc:format>
        <dc:type
           rdf:resource="http://purl.org/dc/dcmitype/StillImage" />
        <dc:title></dc:title>
      </cc:Work>
    </rdf:RDF>
  </metadata>
  <g
     inkscape:label="Layer 1"
     inkscape:groupmode="layer"
     id="layer1"
     transform="translate(0,-752.36218)">
    <text
       xml:space="preserve"
       style="font-size:40px;font-style:normal;font-weight:normal;line-height:125%;letter-spacing:0px;word-spacing:0px;fill:#000000;fill-opacity:1;stroke:none;font-family:Sans"
       x="315.06244"
       y="779.48181"
       id="text6541"
       sodipodi:linespacing="125%"><tspan
         sodipodi:role="line"
         id="tspan6543"
         x="317.29095"
         y="779.48181"
         style="font-size:14px;text-align:center;text-anchor:middle">discretised </tspan><tspan
         sodipodi:role="line"
         x="315.06244"
         y="796.98181"
         style="font-size:14px;text-align:center;text-anchor:middle"
         id="tspan6545">equation</tspan></text>
    <path
       style="color:#000000;fill-opacity:1;fill-rule:nonzero;stroke:none;stroke-width:0.69999999;marker:none;visibility:visible;display:inline;overflow:visible;enable-background:accumulate"
       id="path6547"
       d="m 288.54909,813.83629 c -0.32485,1.7666 -0.44633,3.5629 -0.54206,5.35408 0.0485,0.53996 -0.36406,2.62217 0.74615,1.81221 0.85166,-0.90495 1.31058,-2.10366 1.64458,-3.2812 0.56216,-1.48045 0.99861,-3.00135 1.42133,-4.5259 1.26878,-2.02086 1.10502,2.85493 1.10822,3.05202 -0.0424,1.77365 0.15407,3.50238 1.0851,5.03205 0.69306,0.94519 1.55536,1.23434 2.68232,1.12595 0,0 0.0558,0.71211 0.0558,0.71211 l 0,0 c -1.4015,0.0905 -2.50443,-0.28251 -3.35031,-1.47004 -0.98073,-1.64919 -1.24189,-3.48068 -1.18711,-5.3885 -0.0138,-0.8518 -0.0294,-1.70021 -0.0863,-2.55031 -0.007,-0.10369 -0.0962,-0.23755 -0.0226,-0.31094 0.12759,-0.12726 0.33094,-0.17115 0.51108,-0.17628 0.0656,-0.002 -0.072,0.10987 -0.10794,0.1648 -0.42322,1.52624 -0.85868,3.04959 -1.42282,4.53118 -0.38936,1.35488 -0.92549,2.74833 -1.9936,3.71442 -1.91949,0.87556 -1.87341,-1.15232 -1.79721,-2.47972 0.0977,-1.82539 0.2225,-3.65589 0.5549,-5.45601 0,0 0.70042,0.14008 0.70042,0.14008 z"
       inkscape:connector-curvature="0" />
    <path
       style="color:#000000;fill-opacity:1;fill-rule:nonzero;stroke:none;stroke-width:0.69999999;marker:none;visibility:visible;display:inline;overflow:visible;enable-background:accumulate"
       id="path6549"
       d="m 297.12052,808.83629 c -0.30054,1.20634 -0.24455,2.48351 -0.5537,3.68517 -0.24729,-0.10919 -0.57348,-0.11609 -0.74187,-0.32756 -0.30645,-0.38484 0.82383,-2.62627 1.04659,-2.98279 1.30775,-1.22169 1.95457,-0.082 2.27145,1.17754 0.13097,0.67157 0.1597,1.35523 0.1951,2.03642 0,0 -0.71333,0.0368 -0.71333,0.0368 l 0,0 c -0.0326,-0.63657 -0.0584,-1.27549 -0.17567,-1.90383 -0.12732,-0.54147 -0.25986,-1.56938 -0.97337,-0.96596 -0.33552,0.52647 -0.62141,1.04757 -0.78434,1.65618 -0.0451,0.16825 -0.0677,0.34172 -0.10036,0.5128 -0.0207,0.10844 0.0261,0.25647 -0.0599,0.32575 -0.18178,0.14652 -0.43622,0.16659 -0.65433,0.24989 0.33374,-1.17556 0.21658,-2.45874 0.54326,-3.64052 0,0 0.70042,0.14008 0.70042,0.14008 z"
       inkscape:connector-curvature="0" />
    <path
       style="color:#000000;fill-opacity:1;fill-rule:nonzero;stroke:none;stroke-width:0.69999999;marker:none;visibility:visible;display:inline;overflow:visible;enable-background:accumulate"
       id="path6551"
       d="m 304.35575,807.594 c 0,1.50001 0,3.00002 0,4.50003 0,0 -0.71429,0 -0.71429,0 l 0,0 c 0,-1.50001 0,-3.00002 0,-4.50003 0,0 0.71429,0 0.71429,0 z"
       inkscape:connector-curvature="0" />
    <path
       style="color:#000000;fill-opacity:1;fill-rule:nonzero;stroke:none;stroke-width:0.69999999;marker:none;visibility:visible;display:inline;overflow:visible;enable-background:accumulate"
       id="path6553"
       d="m 300.78434,810.04625 c 1.62897,-0.3135 3.28258,-0.45688 4.93639,-0.55479 0.27021,-0.0115 0.54042,-0.023 0.81064,-0.0345 0,0 0.0303,0.71364 0.0303,0.71364 l 0,0 c -0.26626,0.0113 -0.53252,0.0226 -0.79878,0.0339 -1.62094,0.0957 -3.24175,0.23551 -4.83846,0.54217 0,0 -0.14008,-0.70041 -0.14008,-0.70041 z"
       inkscape:connector-curvature="0" />
    <path
       style="color:#000000;fill-opacity:1;fill-rule:nonzero;stroke:none;stroke-width:0.69999999;marker:none;visibility:visible;display:inline;overflow:visible;enable-background:accumulate"
       id="path6555"
       d="m 310.07003,807.33768 c 0,1.62914 0,3.25828 0,4.88742 0,0.5286 0,1.05721 0,1.58582 0,0 -0.71428,0 -0.71428,0 l 0,0 c 0,-0.52861 0,-1.05722 0,-1.58582 0,-1.62914 0,-3.25828 0,-4.88742 0,0 0.71428,0 0.71428,0 z"
       inkscape:connector-curvature="0" />
    <path
       style="color:#000000;fill-opacity:1;fill-rule:nonzero;stroke:none;stroke-width:0.69999999;marker:none;visibility:visible;display:inline;overflow:visible;enable-background:accumulate"
       id="path6559"
       d="m 301.29002,820.98338 c -0.53893,1.20836 -1.00725,2.48306 -0.47137,3.76066 0.80414,1.09359 1.85622,0.63418 2.85172,0.0835 0,0 0.34147,0.62738 0.34147,0.62738 l 0,0 c -1.39993,0.75134 -2.8629,1.09492 -3.85868,-0.45141 -0.55295,-1.49978 -0.16816,-2.92788 0.49798,-4.33957 0,0 0.63888,0.31944 0.63888,0.31944 z"
       inkscape:connector-curvature="0" />
    <path
       style="color:#000000;fill-opacity:1;fill-rule:nonzero;stroke:none;stroke-width:0.69999999;marker:none;visibility:visible;display:inline;overflow:visible;enable-background:accumulate"
       id="path6561"
       d="m 313.02397,817.18703 c 2.40286,-0.38441 4.84106,-0.46706 7.26902,-0.55312 2.27534,-0.0702 4.55193,-0.081 6.82818,-0.0853 0,0 10e-4,0.71429 10e-4,0.71429 l 0,0 c -2.26827,0.004 -4.53689,0.015 -6.80427,0.0849 -2.39709,0.0849 -4.80442,0.16533 -7.17687,0.54385 0,0 -0.11743,-0.70457 -0.11743,-0.70457 z"
       inkscape:connector-curvature="0" />
    <path
       style="color:#000000;fill-opacity:1;fill-rule:nonzero;stroke:none;stroke-width:0.69999999;marker:none;visibility:visible;display:inline;overflow:visible;enable-background:accumulate"
       id="path6547-2"
       d="m 331.96759,814.25711 c -0.32485,1.7666 -0.44634,3.56291 -0.54206,5.35409 0.0485,0.53995 -0.36406,2.62217 0.74615,1.8122 0.85166,-0.90494 1.31058,-2.10365 1.64457,-3.2812 0.56217,-1.48044 0.99862,-3.00134 1.42134,-4.5259 1.26878,-2.02085 1.10502,2.85493 1.10822,3.05203 -0.0424,1.77364 0.15407,3.50238 1.0851,5.03204 0.69306,0.9452 1.55536,1.23434 2.68232,1.12596 0,0 0.0558,0.7121 0.0558,0.7121 l 0,0 c -1.4015,0.0905 -2.50444,-0.28251 -3.35031,-1.47004 -0.98073,-1.64918 -1.24189,-3.48067 -1.18711,-5.3885 -0.0138,-0.85179 -0.0294,-1.7002 -0.0863,-2.5503 -0.007,-0.10369 -0.0962,-0.23755 -0.0226,-0.31094 0.12759,-0.12727 0.33094,-0.17115 0.51108,-0.17629 0.0656,-0.002 -0.072,0.10987 -0.10794,0.1648 -0.42322,1.52625 -0.85869,3.0496 -1.42282,4.53119 -0.38936,1.35488 -0.92549,2.74832 -1.9936,3.71441 -1.9195,0.87557 -1.87342,-1.15232 -1.79722,-2.47972 0.0977,-1.82538 0.2225,-3.65589 0.55491,-5.45601 0,0 0.70042,0.14008 0.70042,0.14008 z"
       inkscape:connector-curvature="0" />
    <path
       style="color:#000000;fill-opacity:1;fill-rule:nonzero;stroke:none;stroke-width:0.69999999;marker:none;visibility:visible;display:inline;overflow:visible;enable-background:accumulate"
       id="path6549-6"
       d="m 341.56376,807.85601 c -0.30054,1.20634 -0.24455,2.48351 -0.55369,3.68517 -0.2473,-0.10919 -0.57348,-0.11609 -0.74188,-0.32756 -0.30645,-0.38484 0.82383,-2.62627 1.0466,-2.98279 1.30774,-1.22169 1.95457,-0.082 2.27145,1.17754 0.13097,0.67157 0.1597,1.35523 0.1951,2.03642 0,0 -0.71334,0.0368 -0.71334,0.0368 l 0,0 c -0.0326,-0.63657 -0.0584,-1.27549 -0.17566,-1.90383 -0.12732,-0.54147 -0.25986,-1.56938 -0.97337,-0.96596 -0.33553,0.52647 -0.62141,1.04757 -0.78435,1.65618 -0.0451,0.16825 -0.0677,0.34172 -0.10036,0.5128 -0.0207,0.10844 0.0261,0.25647 -0.0598,0.32575 -0.18178,0.14652 -0.43622,0.16659 -0.65433,0.24989 0.33375,-1.17556 0.21658,-2.45874 0.54327,-3.64052 0,0 0.70041,0.14008 0.70041,0.14008 z"
       inkscape:connector-curvature="0" />
    <path
       style="color:#000000;fill-opacity:1;fill-rule:nonzero;stroke:none;stroke-width:0.69999999;marker:none;visibility:visible;display:inline;overflow:visible;enable-background:accumulate"
       id="path6559-0"
       d="m 343.76704,820.08766 c -0.53893,1.20836 -1.00725,2.48306 -0.47137,3.76066 0.80414,1.09359 1.85622,0.63418 2.85172,0.0835 0,0 0.34147,0.62738 0.34147,0.62738 l 0,0 c -1.39993,0.75134 -2.8629,1.09492 -3.85868,-0.45141 -0.55295,-1.49978 -0.16816,-2.92788 0.49798,-4.33957 0,0 0.63888,0.31944 0.63888,0.31944 z"
       inkscape:connector-curvature="0" />
    <path
       style="fill:none;stroke:#000000;stroke-width:1.57850361px;stroke-linecap:butt;stroke-linejoin:miter;stroke-opacity:1"
       d="m 300.64318,817.4819 c -2.6506,0 0,0 0,0 z"
       id="path6619"
       inkscape:connector-curvature="0" />
    <path
       style="fill:none;stroke:#000000;stroke-width:1.57850361px;stroke-linecap:butt;stroke-linejoin:miter;stroke-opacity:1"
       d="m 343.44477,817.19619 c -2.6506,0 0,0 0,0 z"
       id="path6619-5"
       inkscape:connector-curvature="0" />
    <path
       style="color:#000000;fill-opacity:1;fill-rule:nonzero;stroke:none;stroke-width:0.69999999;marker:none;visibility:visible;display:inline;overflow:visible;enable-background:accumulate"
       id="path6639"
       d="m 283.71153,830.83904 c 1.73696,0 3.47392,0 5.21088,0 2.00598,0 4.01196,0 6.01793,0 2.52094,0 5.04189,0 7.56283,0 2.79128,0 5.58257,0 8.37385,0 2.32212,0.13081 4.61737,-0.19061 6.91935,-0.42836 2.03786,-0.20565 4.08682,-0.24694 6.13325,-0.27641 2.63242,-0.0138 5.25129,-0.3464 7.87586,-0.53011 2.1263,-0.1366 4.2568,-0.17523 6.38683,-0.19279 1.78976,-0.01 3.57957,-0.006 5.36935,-0.004 2.02893,0.002 4.05787,0.002 6.0868,0.003 1.39301,2.1e-4 2.78602,2.3e-4 4.17903,2.4e-4 0,0 -1e-5,0.71428 -1e-5,0.71428 l 0,0 c -1.39305,-1e-5 -2.7861,-2e-5 -4.17915,-2.3e-4 -2.02913,-3.7e-4 -4.05825,-9.3e-4 -6.08738,-0.003 -1.78758,-0.002 -3.57519,-0.006 -5.36276,0.004 -2.11535,0.0174 -4.23118,0.0556 -6.34284,0.19107 -2.63775,0.18454 -5.26974,0.51876 -7.91545,0.53177 -2.02537,0.0291 -4.05327,0.0694 -6.07017,0.2727 -2.32627,0.24012 -4.64621,0.56267 -6.99271,0.43215 -2.79128,0 -5.58257,0 -8.37385,0 -2.52094,0 -5.04189,0 -7.56283,0 -2.00597,0 -4.01195,0 -6.01793,0 -1.73696,0 -3.47392,0 -5.21088,0 0,0 0,-0.71429 0,-0.71429 z"
       inkscape:connector-curvature="0" />
    <path
       style="color:#000000;fill-opacity:1;fill-rule:nonzero;stroke:none;stroke-width:0.69999999;marker:none;visibility:visible;display:inline;overflow:visible;enable-background:accumulate"
       id="path6641"
       d="m 309.69305,835.9473 c -0.7324,1.34858 -1.4939,2.67597 -2.20554,4.03624 -0.80712,1.44611 -1.62429,2.88827 -2.36571,4.37064 -0.26646,0.58486 -0.68167,1.13273 -0.83692,1.76844 -0.0235,0.0964 0.0293,0.3944 0.0383,0.29548 0.004,-0.048 -0.0214,-0.0938 -0.0321,-0.14073 0.70243,-0.25951 1.40438,-0.53062 2.14603,-0.69604 1.12781,-0.19166 2.26124,-0.18124 3.37926,-0.42989 0.9765,-0.29368 2.02686,-0.20341 2.97616,-0.5839 0.26793,-0.35865 -0.31612,-1.10361 -0.50555,-1.44782 -0.73479,-1.33392 -1.43488,-2.6898 -2.09459,-4.06391 -0.39543,-0.83895 -0.84395,-1.64296 -1.29816,-2.44961 0,0 0.54162,-0.3145 0.54162,-0.3145 l 0,0 c 0.46094,0.81874 0.9156,1.63541 1.31741,2.48656 0.65412,1.36408 1.34981,2.70935 2.07888,4.03331 0.40513,0.74197 1.08598,1.71374 0.18387,2.34753 -0.98766,0.37619 -2.05071,0.33671 -3.06655,0.61136 -1.11892,0.24736 -2.24983,0.25176 -3.37943,0.42994 -0.84104,0.18479 -1.61452,0.6232 -2.46097,0.68302 -0.12373,-0.082 -0.27601,-0.13105 -0.37118,-0.24577 -0.53817,-0.64875 0.65236,-2.02291 0.82771,-2.57058 0.74399,-1.48533 1.56092,-2.93193 2.37092,-4.38081 0.70923,-1.35567 1.46766,-2.67889 2.19846,-4.02232 0,0 0.55805,0.28336 0.55805,0.28336 z"
       inkscape:connector-curvature="0" />
    <path
       style="color:#000000;fill-opacity:1;fill-rule:nonzero;stroke:none;stroke-width:0.69999999;marker:none;visibility:visible;display:inline;overflow:visible;enable-background:accumulate"
       id="path6643"
       d="m 317.12386,836.12393 c -0.29545,2.05676 -0.49641,4.11211 -0.34236,6.18449 0.24297,1.62765 0.90929,2.48763 2.51103,3.1083 0.96211,0.3361 1.93986,0.25496 2.92151,0.0683 0,0 0.13807,0.65528 0.13807,0.65528 l 0,0 c -1.12532,0.20151 -2.24025,0.28519 -3.33826,-0.10859 -1.85362,-0.74822 -2.67057,-1.78585 -2.94494,-3.67727 -0.15531,-2.11942 0.0434,-4.2217 0.34784,-6.32492 0,0 0.70711,0.0944 0.70711,0.0944 z"
       inkscape:connector-curvature="0" />
    <path
       style="color:#000000;fill-opacity:1;fill-rule:nonzero;stroke:none;stroke-width:0.69999999;marker:none;visibility:visible;display:inline;overflow:visible;enable-background:accumulate"
       id="path6645"
       d="m 313.71153,840.12476 c 1.91805,-0.22273 3.83173,-0.43662 5.73178,-0.78245 1.42378,-0.23036 0.70026,-0.12535 2.17084,-0.31302 0,0 0.0903,0.70855 0.0903,0.70855 l 0,0 c -1.44221,0.18352 -0.73121,0.0806 -2.13327,0.30722 -1.94195,0.35323 -3.89834,0.57495 -5.85965,0.79398 0,0 0,-0.71428 0,-0.71428 z"
       inkscape:connector-curvature="0" />
    <text
       xml:space="preserve"
       style="font-size:40px;font-style:normal;font-weight:normal;line-height:125%;letter-spacing:0px;word-spacing:0px;fill:#000000;fill-opacity:1;stroke:none;font-family:Sans"
       x="546.61243"
       y="778.16559"
       id="text6541-7"
       sodipodi:linespacing="125%"><tspan
         sodipodi:role="line"
         x="546.61243"
         y="778.16559"
         style="font-size:14px;text-align:center;text-anchor:middle"
         id="tspan6545-3">differential</tspan><tspan
         sodipodi:role="line"
         x="546.61243"
         y="795.66559"
         style="font-size:14px;text-align:center;text-anchor:middle"
         id="tspan6673">equation</tspan></text>
    <path
       style="color:#000000;fill-opacity:1;fill-rule:nonzero;stroke:none;stroke-width:0.69999999;marker:none;visibility:visible;display:inline;overflow:visible;enable-background:accumulate"
       id="path6547-5"
       d="m 549.34962,812.49335 c -0.32485,1.7666 -0.44634,3.56291 -0.54206,5.35409 0.0485,0.53995 -0.36406,2.62217 0.74615,1.8122 0.85166,-0.90494 1.31058,-2.10365 1.64457,-3.2812 0.56217,-1.48045 0.99861,-3.00134 1.42134,-4.5259 1.26878,-2.02085 1.10502,2.85493 1.10822,3.05203 -0.0424,1.77364 0.15407,3.50238 1.0851,5.03204 0.69306,0.9452 1.55535,1.23434 2.68232,1.12596 0,0 0.0558,0.7121 0.0558,0.7121 l 0,0 c -1.4015,0.0905 -2.50444,-0.28251 -3.35031,-1.47004 -0.98073,-1.64918 -1.24189,-3.48068 -1.18711,-5.3885 -0.0138,-0.85179 -0.0294,-1.7002 -0.0863,-2.5503 -0.007,-0.10369 -0.0962,-0.23755 -0.0226,-0.31094 0.12759,-0.12727 0.33094,-0.17116 0.51108,-0.17629 0.0656,-0.002 -0.072,0.10987 -0.10794,0.1648 -0.42322,1.52625 -0.85869,3.0496 -1.42282,4.53119 -0.38936,1.35488 -0.92549,2.74832 -1.9936,3.71441 -1.9195,0.87556 -1.87342,-1.15232 -1.79722,-2.47972 0.0977,-1.82539 0.2225,-3.65589 0.55491,-5.45601 0,0 0.70042,0.14008 0.70042,0.14008 z"
       inkscape:connector-curvature="0" />
    <path
       style="color:#000000;fill-opacity:1;fill-rule:nonzero;stroke:none;stroke-width:0.69999999;marker:none;visibility:visible;display:inline;overflow:visible;enable-background:accumulate"
       id="path6639-4"
       d="m 539.08348,827.4961 c 0.48063,0 0.96126,0 1.44189,0 0.55507,0 1.11014,0 1.66522,0 0.69756,0 1.39513,0 2.09269,0 0.77238,0 1.54475,0 2.31712,0 0.64255,0.13081 1.27767,-0.19061 1.91464,-0.42836 0.56389,-0.20565 1.13086,-0.24694 1.69713,-0.27641 0.72841,-0.0138 1.45307,-0.34639 2.17931,-0.5301 0.58837,-0.13661 1.1779,-0.17524 1.76729,-0.1928 0.49524,-0.01 0.9905,-0.006 1.48575,-0.004 0.56142,0.002 1.12284,0.002 1.68427,0.003 0.38545,2.2e-4 0.77091,2.3e-4 1.15637,2.4e-4 0,0 0,0.71429 0,0.71429 l 0,0 c -0.38547,-10e-6 -0.77094,-3e-5 -1.15641,-2.4e-4 -0.56148,-3.7e-4 -1.12295,-9.2e-4 -1.68443,-0.003 -0.49464,-0.002 -0.98928,-0.006 -1.48392,0.004 -0.58534,0.0174 -1.17081,0.0556 -1.75512,0.19107 -0.72989,0.18454 -1.45818,0.51876 -2.19027,0.53177 -0.56044,0.0291 -1.12157,0.0694 -1.67967,0.2727 -0.6437,0.24012 -1.28564,0.56267 -1.93494,0.43215 -0.77237,0 -1.54474,0 -2.31712,0 -0.69756,0 -1.39513,0 -2.09269,0 -0.55508,0 -1.11015,0 -1.66522,0 -0.48063,0 -0.96126,0 -1.44189,0 0,0 0,-0.71429 0,-0.71429 z"
       inkscape:connector-curvature="0" />
    <path
       style="color:#000000;fill-opacity:1;fill-rule:nonzero;stroke:none;stroke-width:0.69999999;marker:none;visibility:visible;display:inline;overflow:visible;enable-background:accumulate"
       id="path6643-7"
       d="m 553.92439,832.78099 c -0.29545,2.05676 -0.49641,4.11211 -0.34236,6.18449 0.24297,1.62765 0.90929,2.48763 2.51103,3.1083 0.96211,0.3361 1.93986,0.25496 2.92151,0.0683 0,0 0.13807,0.65528 0.13807,0.65528 l 0,0 c -1.12532,0.20151 -2.24025,0.28519 -3.33826,-0.10859 -1.85362,-0.74822 -2.67057,-1.78585 -2.94494,-3.67727 -0.15531,-2.11942 0.0434,-4.2217 0.34784,-6.32492 0,0 0.70711,0.0944 0.70711,0.0944 z"
       inkscape:connector-curvature="0" />
    <path
       style="color:#000000;fill-opacity:1;fill-rule:nonzero;stroke:none;stroke-width:0.69999999;marker:none;visibility:visible;display:inline;overflow:visible;enable-background:accumulate"
       id="path6645-6"
       d="m 550.51205,836.78182 c 1.91806,-0.22273 3.83174,-0.43662 5.73179,-0.78245 1.42378,-0.23036 0.70026,-0.12535 2.17084,-0.31302 0,0 0.0903,0.70855 0.0903,0.70855 l 0,0 c -1.44221,0.18352 -0.73121,0.0806 -2.13327,0.30722 -1.94196,0.35323 -3.89834,0.57495 -5.85965,0.79398 0,0 0,-0.71428 0,-0.71428 z"
       inkscape:connector-curvature="0" />
    <path
       style="color:#000000;fill-opacity:1;fill-rule:nonzero;stroke:none;stroke-width:0.69999999;marker:none;visibility:visible;display:inline;overflow:visible;enable-background:accumulate"
       id="path6742"
       d="m 544.28569,815.69619 c -1.32116,0.10654 -2.43247,0.51298 -3.31942,1.51066 -0.63252,0.89974 -0.5935,1.74184 0.14423,2.52771 0.88746,0.68752 2.0055,0.79166 2.98536,0.24995 1.04128,-0.52442 1.34921,-1.47751 1.55039,-2.55033 0.22661,-1.27896 -0.16965,-2.47826 -0.73143,-3.61013 -0.73927,-1.09574 -1.62249,-2.0885 -2.40228,-3.16063 -0.61785,-0.85281 -1.38754,-1.50211 -2.25085,-2.09177 0,0 0.40426,-0.58887 0.40426,-0.58887 l 0,0 c 0.92569,0.63837 1.76049,1.34353 2.42459,2.26097 0.80162,1.1061 1.72237,2.12141 2.46504,3.26464 0.62393,1.27511 1.05093,2.6244 0.79227,4.05982 -0.24979,1.28664 -0.6844,2.42421 -1.92493,3.05131 -1.30631,0.63893 -2.70533,0.54446 -3.84549,-0.40952 -0.94593,-1.10048 -1.01499,-2.28303 -0.13934,-3.48401 1.04605,-1.12713 2.31398,-1.64192 3.8476,-1.74409 0,0 0,0.71429 0,0.71429 z"
       inkscape:connector-curvature="0" />
    <path
       style="color:#000000;fill-opacity:1;fill-rule:nonzero;stroke:none;stroke-width:0.69999999;marker:none;visibility:visible;display:inline;overflow:visible;enable-background:accumulate"
       id="path6742-2"
       d="m 546.73216,837.24457 c -1.32116,0.10654 -2.43247,0.51298 -3.31942,1.51066 -0.63252,0.89974 -0.5935,1.74184 0.14423,2.52771 0.88746,0.68752 2.0055,0.79166 2.98536,0.24995 1.04128,-0.52442 1.34921,-1.47751 1.55039,-2.55033 0.22661,-1.27896 -0.16965,-2.47826 -0.73143,-3.61013 -0.73927,-1.09574 -1.62249,-2.0885 -2.40228,-3.16063 -0.61785,-0.85281 -1.38754,-1.50211 -2.25085,-2.09177 0,0 0.40426,-0.58887 0.40426,-0.58887 l 0,0 c 0.92569,0.63837 1.76049,1.34353 2.42459,2.26097 0.80162,1.1061 1.72237,2.12141 2.46504,3.26464 0.62393,1.27511 1.05093,2.6244 0.79227,4.05982 -0.24979,1.28664 -0.6844,2.42421 -1.92493,3.05131 -1.30631,0.63893 -2.70533,0.54446 -3.84549,-0.40952 -0.94593,-1.10048 -1.01499,-2.28303 -0.13934,-3.48401 1.04605,-1.12713 2.31398,-1.64192 3.8476,-1.74409 0,0 0,0.71429 0,0.71429 z"
       inkscape:connector-curvature="0" />
    <path
       style="color:#000000;fill-opacity:1;fill-rule:nonzero;stroke:none;stroke-width:0.69999999;marker:none;visibility:visible;display:inline;overflow:visible;enable-background:accumulate"
       id="path6764"
       d="m 375.85438,808.26761 c 2.12719,0 4.25438,0 6.38157,0 2.38186,0 4.76372,0 7.14558,0 3.32136,0.0145 6.64295,-0.0575 9.96177,0.0858 3.21152,0.26634 6.44024,0.32891 9.64759,0.63522 3.00569,0.41995 6.03844,0.53959 9.06829,0.63213 2.82782,0.0414 5.63751,0.40551 8.45721,0.60022 2.57292,0.16919 5.15237,0.17675 7.72964,0.18982 2.87224,-0.10597 5.72713,0.2058 8.58498,0.43408 2.49363,0.20841 4.99586,0.24669 7.49657,0.27063 2.81142,0.0183 5.62292,0.0147 8.43438,0.0131 2.49699,-0.002 4.99398,-0.003 7.49098,-0.003 2.32923,-4.1e-4 4.65845,-4.1e-4 6.98768,-4.2e-4 2.05983,0 4.11966,2e-5 6.17949,3e-5 2.42065,0 4.8413,0 7.26195,0 1.94789,0 3.89578,0 5.84367,0 1.62834,0 3.25668,0 4.88502,0 0.29443,0 0.58887,0 0.8833,0 0,0 0,0.71429 0,0.71429 l 0,0 c -0.29443,0 -0.58887,0 -0.8833,0 -1.62834,0 -3.25668,0 -4.88502,0 -1.94789,0 -3.89578,0 -5.84367,0 -2.42065,0 -4.8413,0 -7.26195,-10e-6 -2.05983,-1e-5 -4.11966,-2e-5 -6.17949,-3e-5 -2.32918,10e-6 -4.65835,2e-5 -6.98753,4.3e-4 -2.4969,5.2e-4 -4.99381,0.001 -7.49071,0.003 -2.81388,0.002 -5.6278,0.005 -8.44164,-0.0131 -2.51741,-0.0241 -5.03633,-0.0631 -7.54661,-0.27287 -2.84016,-0.22691 -5.67722,-0.53801 -8.53173,-0.43182 -2.59248,-0.0132 -5.18715,-0.0211 -7.77524,-0.19151 -2.81057,-0.19425 -5.61119,-0.55685 -8.42979,-0.59886 -3.04529,-0.0931 -6.09355,-0.21347 -9.1146,-0.63505 -3.19473,-0.30705 -6.41148,-0.36522 -9.6104,-0.63263 -3.30845,-0.14397 -6.61983,-0.0696 -9.93084,-0.0851 -2.38186,0 -4.76372,0 -7.14558,0 -2.12719,0 -4.25438,0 -6.38157,0 0,0 0,-0.71428 0,-0.71428 z"
       inkscape:connector-curvature="0" />
    <path
       style="color:#000000;fill-opacity:1;fill-rule:nonzero;stroke:none;stroke-width:0.69999999;marker:none;visibility:visible;display:inline;overflow:visible;enable-background:accumulate"
       id="path6766"
       d="m 480.21014,804.78856 c 4.25554,1.16225 8.46608,2.47112 12.66521,3.82166 2.95794,1.03659 6.01838,1.82164 8.94538,2.94659 0.39577,0.24958 0.68287,0.29561 -0.12412,0.93023 -0.0443,0.0349 -2.92486,0.47515 -3.13676,0.51873 -2.37201,0.53547 -4.73725,1.12233 -7.07507,1.79345 -1.67783,0.4647 -3.29153,1.11359 -4.97312,1.56647 0,0 -0.18545,-0.68979 -0.18545,-0.68979 l 0,0 c 1.67807,-0.45036 3.28662,-1.10296 4.96161,-1.56328 2.35572,-0.67528 4.73835,-1.26794 7.12849,-1.80657 0.25704,-0.0526 2.8873,-0.60364 3.05189,-0.49579 0.1615,0.10581 0.20317,0.33595 0.24676,0.52404 0.0141,0.0609 -0.10068,-0.074 -0.15102,-0.11096 -2.91227,-1.12481 -5.96406,-1.89643 -8.90729,-2.93313 -4.17338,-1.34228 -8.35835,-2.64217 -12.5866,-3.80123 0,0 0.14009,-0.70042 0.14009,-0.70042 z"
       inkscape:connector-curvature="0" />
    <path
       style="color:#000000;fill-opacity:1;fill-rule:nonzero;stroke:none;stroke-width:0.69999999;marker:none;visibility:visible;display:inline;overflow:visible;enable-background:accumulate"
       id="path6768"
       d="m 374.18065,810.27729 c 2.18048,-0.85483 4.39321,-1.6101 6.61366,-2.35292 3.04979,-0.94648 6.10682,-1.87032 9.18962,-2.70388 1.434,-0.36317 2.8929,-0.60922 4.34814,-0.86751 0,0 0.12481,0.7033 0.12481,0.7033 l 0,0 c -1.43454,0.25456 -2.87278,0.49656 -4.28658,0.85375 -3.06945,0.82926 -6.11278,1.75011 -9.14939,2.69172 -2.18878,0.73222 -4.36921,1.47791 -6.52082,2.31442 0,0 -0.31944,-0.63888 -0.31944,-0.63888 z"
       inkscape:connector-curvature="0" />
    <path
       style="color:#000000;fill-opacity:1;fill-rule:nonzero;stroke:none;stroke-width:0.69999999;marker:none;visibility:visible;display:inline;overflow:visible;enable-background:accumulate"
       id="path6770"
       d="m 375.85438,807.55333 c 2.27781,0.17814 4.45023,0.87133 6.58331,1.64902 2.93301,1.1501 5.75699,2.55401 8.57952,3.94766 2.76478,1.31266 5.65914,2.28223 8.63571,2.97335 0,0 -0.16172,0.69574 -0.16172,0.69574 l 0,0 c -3.02962,-0.70497 -5.97644,-1.69097 -8.79023,-3.02863 -2.79931,-1.3822 -5.59986,-2.77493 -8.50813,-3.91711 -2.0548,-0.75041 -4.14544,-1.42097 -6.33846,-1.60575 0,0 0,-0.71428 0,-0.71428 z"
       inkscape:connector-curvature="0" />
    <text
       xml:space="preserve"
       style="font-size:40px;font-style:normal;font-weight:normal;line-height:125%;letter-spacing:0px;word-spacing:0px;fill:#000000;fill-opacity:1;stroke:none;font-family:Sans"
       x="440.04095"
       y="795.16559"
       id="text6541-5"
       sodipodi:linespacing="125%"><tspan
         sodipodi:role="line"
         x="440.04095"
         y="795.16559"
         style="font-size:14px;font-weight:bold;text-align:center;text-anchor:middle;-inkscape-font-specification:Sans Bold"
         id="tspan6545-6">consistency</tspan></text>
    <text
       xml:space="preserve"
       style="font-size:40px;font-style:normal;font-weight:normal;line-height:125%;letter-spacing:0px;word-spacing:0px;fill:#000000;fill-opacity:1;stroke:none;font-family:Sans"
       x="311.79584"
       y="969.42517"
       id="text6541-2"
       sodipodi:linespacing="125%"><tspan
         sodipodi:role="line"
         x="314.02435"
         y="969.42517"
         style="font-size:14px;text-align:center;text-anchor:middle"
         id="tspan6824">numerical solution of </tspan><tspan
         sodipodi:role="line"
         x="311.79584"
         y="986.92517"
         style="font-size:14px;text-align:center;text-anchor:middle"
         id="tspan7124">discretised</tspan><tspan
         sodipodi:role="line"
         x="314.02435"
         y="1004.4252"
         style="font-size:14px;text-align:center;text-anchor:middle"
         id="tspan7126">equation </tspan></text>
    <path
       style="color:#000000;fill-opacity:1;fill-rule:nonzero;stroke:none;stroke-width:0.69999999;marker:none;visibility:visible;display:inline;overflow:visible;enable-background:accumulate"
       id="path6547-3"
       d="m 308.43677,1017.3738 c -0.32485,1.7666 -0.44633,3.5629 -0.54206,5.3541 0.0485,0.54 -0.36406,2.6222 0.74615,1.8122 0.85166,-0.9049 1.31058,-2.1036 1.64458,-3.2812 0.56216,-1.4804 0.99861,-3.0013 1.42133,-4.5259 1.26878,-2.0208 1.10502,2.8549 1.10822,3.052 -0.0424,1.7737 0.15407,3.5024 1.0851,5.0321 0.69306,0.9452 1.55536,1.2343 2.68232,1.1259 0,0 0.0558,0.7121 0.0558,0.7121 l 0,0 c -1.4015,0.091 -2.50443,-0.2825 -3.35031,-1.47 -0.98073,-1.6492 -1.24189,-3.4807 -1.18711,-5.3885 -0.0138,-0.8518 -0.0294,-1.7002 -0.0862,-2.5503 -0.007,-0.1037 -0.0962,-0.2375 -0.0226,-0.3109 0.12759,-0.1273 0.33094,-0.1712 0.51108,-0.1763 0.0656,0 -0.072,0.1098 -0.10794,0.1648 -0.42322,1.5262 -0.85868,3.0496 -1.42282,4.5312 -0.38936,1.3548 -0.92549,2.7483 -1.9936,3.7144 -1.91949,0.8755 -1.87341,-1.1523 -1.79721,-2.4797 0.0977,-1.8254 0.2225,-3.6559 0.5549,-5.4561 0,0 0.70042,0.1401 0.70042,0.1401 z"
       inkscape:connector-curvature="0" />
    <path
       style="color:#000000;fill-opacity:1;fill-rule:nonzero;stroke:none;stroke-width:0.69999999;marker:none;visibility:visible;display:inline;overflow:visible;enable-background:accumulate"
       id="path6549-6-3"
       d="m 318.67918,1013.5741 c -0.30054,1.2063 -0.24455,2.4835 -0.5537,3.6852 -0.24729,-0.1092 -0.57347,-0.1161 -0.74187,-0.3276 -0.30645,-0.3848 0.82383,-2.6263 1.0466,-2.9828 1.30774,-1.2217 1.95457,-0.082 2.27145,1.1776 0.13097,0.6715 0.1597,1.3552 0.1951,2.0364 0,0 -0.71334,0.037 -0.71334,0.037 l 0,0 c -0.0326,-0.6366 -0.0584,-1.2755 -0.17566,-1.9039 -0.12732,-0.5414 -0.25986,-1.5693 -0.97337,-0.9659 -0.33553,0.5265 -0.62141,1.0476 -0.78435,1.6562 -0.0451,0.1682 -0.0677,0.3417 -0.10036,0.5128 -0.0207,0.1084 0.0261,0.2564 -0.0598,0.3257 -0.18178,0.1465 -0.43622,0.1666 -0.65433,0.2499 0.33375,-1.1756 0.21658,-2.4587 0.54327,-3.6405 0,0 0.70041,0.1401 0.70041,0.1401 z"
       inkscape:connector-curvature="0" />
    <path
       style="color:#000000;fill-opacity:1;fill-rule:nonzero;stroke:none;stroke-width:0.69999999;marker:none;visibility:visible;display:inline;overflow:visible;enable-background:accumulate"
       id="path6559-0-1"
       d="m 320.88246,1025.8057 c -0.53893,1.2084 -1.00725,2.4831 -0.47137,3.7607 0.80414,1.0936 1.85622,0.6342 2.85172,0.083 0,0 0.34147,0.6274 0.34147,0.6274 l 0,0 c -1.39993,0.7513 -2.8629,1.0949 -3.85868,-0.4514 -0.55295,-1.4998 -0.16816,-2.9279 0.49798,-4.3396 0,0 0.63888,0.3194 0.63888,0.3194 z"
       inkscape:connector-curvature="0" />
    <path
       style="fill:none;stroke:#000000;stroke-width:1.57850361px;stroke-linecap:butt;stroke-linejoin:miter;stroke-opacity:1"
       d="m 320.56019,1022.9143 c -2.6506,0 0,0 0,0 z"
       id="path6619-5-0"
       inkscape:connector-curvature="0" />
    <text
       xml:space="preserve"
       style="font-size:40px;font-style:normal;font-weight:normal;line-height:125%;letter-spacing:0px;word-spacing:0px;fill:#000000;fill-opacity:1;stroke:none;font-family:Sans"
       x="453.72546"
       y="969.9776"
       id="text6541-5-2"
       sodipodi:linespacing="125%"><tspan
         sodipodi:role="line"
         x="453.72546"
         y="969.9776"
         style="font-size:14px;font-weight:bold;text-align:center;text-anchor:middle;-inkscape-font-specification:Sans Bold"
         id="tspan6545-6-5">convergence</tspan></text>
    <path
       style="color:#000000;fill-opacity:1;fill-rule:nonzero;stroke:none;stroke-width:0.69999999;marker:none;visibility:visible;display:inline;overflow:visible;enable-background:accumulate"
       id="path6764-9"
       d="m 387.98311,983.13734 c 2.12719,0 4.25438,0 6.38157,0 2.38186,0 4.76372,0 7.14558,0 3.32136,0.0145 6.64295,-0.0575 9.96177,0.0858 3.21152,0.26634 6.44024,0.32891 9.64759,0.63522 3.00569,0.41995 6.03844,0.53959 9.06829,0.63213 2.82782,0.0414 5.63751,0.40551 8.45721,0.60022 2.57292,0.16919 5.15237,0.17675 7.72964,0.18982 2.87224,-0.10597 5.72713,0.2058 8.58498,0.43408 2.49363,0.20841 4.99586,0.24669 7.49657,0.27063 2.81142,0.0183 5.62292,0.0147 8.43438,0.0131 2.49699,-0.002 4.99398,-0.003 7.49098,-0.003 2.32923,-4.1e-4 4.65845,-4.1e-4 6.98768,-4.2e-4 2.05983,0 4.11966,2e-5 6.17949,3e-5 2.42065,0 4.8413,0 7.26195,0 1.94789,0 3.89578,0 5.84367,0 1.62834,0 3.25668,0 4.88502,0 0.29443,0 0.58887,0 0.8833,0 0,0 0,0.71429 0,0.71429 l 0,0 c -0.29443,0 -0.58887,0 -0.8833,0 -1.62834,0 -3.25668,0 -4.88502,0 -1.94789,0 -3.89578,0 -5.84367,0 -2.42065,0 -4.8413,0 -7.26195,-10e-6 -2.05983,-1e-5 -4.11966,-2e-5 -6.17949,-3e-5 -2.32918,10e-6 -4.65835,2e-5 -6.98753,4.3e-4 -2.4969,5.2e-4 -4.99381,0.001 -7.49071,0.003 -2.81388,0.002 -5.6278,0.005 -8.44164,-0.0131 -2.51741,-0.0241 -5.03633,-0.0631 -7.54661,-0.27287 -2.84016,-0.22691 -5.67722,-0.53801 -8.53173,-0.43182 -2.59248,-0.0132 -5.18715,-0.0211 -7.77524,-0.19151 -2.81057,-0.19425 -5.61119,-0.55685 -8.42979,-0.59886 -3.04529,-0.0931 -6.09355,-0.21347 -9.1146,-0.63505 -3.19473,-0.30705 -6.41148,-0.36522 -9.6104,-0.63263 -3.30845,-0.14397 -6.61983,-0.0696 -9.93084,-0.0851 -2.38186,0 -4.76372,0 -7.14558,0 -2.12719,0 -4.25438,0 -6.38157,0 0,0 0,-0.71428 0,-0.71428 z"
       inkscape:connector-curvature="0" />
    <path
       style="color:#000000;fill-opacity:1;fill-rule:nonzero;stroke:none;stroke-width:0.69999999;marker:none;visibility:visible;display:inline;overflow:visible;enable-background:accumulate"
       id="path6766-4"
       d="m 492.33887,979.65829 c 4.25554,1.16225 8.46608,2.47112 12.66521,3.82166 2.95794,1.03659 6.01838,1.82164 8.94538,2.94659 0.39577,0.24958 0.68287,0.29561 -0.12412,0.93023 -0.0443,0.0349 -2.92486,0.47515 -3.13676,0.51873 -2.37201,0.53547 -4.73725,1.12233 -7.07507,1.79345 -1.67783,0.4647 -3.29153,1.11359 -4.97312,1.56647 0,0 -0.18545,-0.68979 -0.18545,-0.68979 l 0,0 c 1.67807,-0.45036 3.28662,-1.10296 4.96161,-1.56328 2.35572,-0.67528 4.73835,-1.26794 7.12849,-1.80657 0.25704,-0.0526 2.8873,-0.60364 3.05189,-0.49579 0.1615,0.10581 0.20317,0.33595 0.24676,0.52404 0.0141,0.0609 -0.10068,-0.074 -0.15102,-0.11096 -2.91227,-1.12481 -5.96406,-1.89643 -8.90729,-2.93313 -4.17338,-1.34228 -8.35835,-2.64217 -12.5866,-3.80123 0,0 0.14009,-0.70042 0.14009,-0.70042 z"
       inkscape:connector-curvature="0" />
    <path
       style="color:#000000;fill-opacity:1;fill-rule:nonzero;stroke:none;stroke-width:0.69999999;marker:none;visibility:visible;display:inline;overflow:visible;enable-background:accumulate"
       id="path6768-8"
       d="m 386.30938,985.14702 c 2.18048,-0.85483 4.39321,-1.6101 6.61366,-2.35292 3.04979,-0.94648 6.10682,-1.87032 9.18962,-2.70388 1.434,-0.36317 2.8929,-0.60922 4.34814,-0.86751 0,0 0.12481,0.7033 0.12481,0.7033 l 0,0 c -1.43454,0.25456 -2.87278,0.49656 -4.28658,0.85375 -3.06945,0.82926 -6.11278,1.75011 -9.14939,2.69172 -2.18878,0.73222 -4.36921,1.47791 -6.52082,2.31442 0,0 -0.31944,-0.63888 -0.31944,-0.63888 z"
       inkscape:connector-curvature="0" />
    <path
       style="color:#000000;fill-opacity:1;fill-rule:nonzero;stroke:none;stroke-width:0.69999999;marker:none;visibility:visible;display:inline;overflow:visible;enable-background:accumulate"
       id="path6770-5"
       d="m 387.98311,982.42306 c 2.27781,0.17814 4.45023,0.87133 6.58331,1.64902 2.93301,1.1501 5.75699,2.55401 8.57952,3.94766 2.76478,1.31266 5.65914,2.28223 8.63571,2.97335 0,0 -0.16172,0.69574 -0.16172,0.69574 l 0,0 c -3.02962,-0.70497 -5.97644,-1.69097 -8.79023,-3.02863 -2.79931,-1.3822 -5.59986,-2.77493 -8.50813,-3.91711 -2.0548,-0.75041 -4.14544,-1.42097 -6.33846,-1.60575 0,0 0,-0.71428 0,-0.71428 z"
       inkscape:connector-curvature="0" />
    <text
       xml:space="preserve"
       style="font-size:40px;font-style:normal;font-weight:normal;line-height:125%;letter-spacing:0px;word-spacing:0px;fill:#000000;fill-opacity:1;stroke:none;font-family:Sans"
       x="578.77063"
       y="961.63928"
       id="text6541-2-6"
       sodipodi:linespacing="125%"><tspan
         sodipodi:role="line"
         x="578.77063"
         y="961.63928"
         style="font-size:14px;text-align:center;text-anchor:middle"
         id="tspan6949">exact solution of</tspan><tspan
         sodipodi:role="line"
         x="578.77063"
         y="979.13928"
         style="font-size:14px;text-align:center;text-anchor:middle"
         id="tspan6957">differential</tspan><tspan
         sodipodi:role="line"
         x="578.77063"
         y="996.63928"
         style="font-size:14px;text-align:center;text-anchor:middle"
         id="tspan6951">equation</tspan></text>
    <text
       xml:space="preserve"
       style="font-size:40px;font-style:normal;font-weight:normal;line-height:125%;letter-spacing:0px;word-spacing:0px;fill:#000000;fill-opacity:1;stroke:none;font-family:Sans"
       x="70.508934"
       y="971.612"
       id="text6541-2-6-1"
       sodipodi:linespacing="125%"><tspan
         sodipodi:role="line"
         x="70.508934"
         y="971.612"
         style="font-size:14px;text-align:center;text-anchor:middle"
         id="tspan6949-4">exact solution of</tspan><tspan
         sodipodi:role="line"
         x="70.508934"
         y="989.112"
         style="font-size:14px;text-align:center;text-anchor:middle"
         id="tspan6951-8">numerical</tspan><tspan
         sodipodi:role="line"
         x="70.508934"
         y="1006.612"
         style="font-size:14px;text-align:center;text-anchor:middle"
         id="tspan6988">scheme</tspan></text>
    <path
       style="color:#000000;fill-opacity:1;fill-rule:nonzero;stroke:none;stroke-width:0.69999999;marker:none;visibility:visible;display:inline;overflow:visible;enable-background:accumulate"
       id="path6996"
       d="m 562.02034,1022.4557 c -0.22996,1.932 -0.6179,3.8799 -0.2604,5.8136 0.55849,1.2125 1.03353,1.0061 1.84838,0.248 0.78468,-1.0188 1.32991,-2.1913 1.80688,-3.3793 0.52415,-1.265 0.67695,-2.6235 0.91397,-3.9583 0.13171,-0.3683 0.21769,-0.7638 0.68874,0.558 0.0573,0.1609 -0.37697,3.0498 -0.41123,3.4207 -0.15023,1.6682 -0.35718,3.3119 0.37307,4.8652 0.6373,1.1826 1.61064,1.547 2.87137,1.7001 0,0 -0.0906,0.7085 -0.0906,0.7085 l 0,0 c -1.50474,-0.2008 -2.68423,-0.7039 -3.43026,-2.1114 -0.75438,-1.686 -0.62556,-3.4226 -0.43482,-5.2282 0.0354,-0.3827 0.25558,-3.2257 0.41202,-3.4287 0.1646,-0.2136 0.93401,-0.612 0.72497,-0.3591 -0.24636,1.383 -0.40894,2.7895 -0.9544,4.0994 -0.51685,1.2864 -1.11212,2.5603 -1.99065,3.6429 -1.29584,1.1458 -2.33435,1.0574 -3.03051,-0.6518 -0.35177,-2.0197 -0.002,-4.0411 0.25892,-6.057 0,0 0.70456,0.1174 0.70456,0.1174 z"
       inkscape:connector-curvature="0" />
    <path
       style="color:#000000;fill-opacity:1;fill-rule:nonzero;stroke:none;stroke-width:0.69999999;marker:none;visibility:visible;display:inline;overflow:visible;enable-background:accumulate"
       id="path6998"
       d="m 557.20302,1018.5299 c 0.43229,-1.4986 1.26436,-2.7583 2.2547,-3.9356 0.87547,-0.9484 1.96199,-1.4938 3.14186,-0.7923 0.64255,0.7766 1.0077,1.6807 1.8949,2.2098 0.83779,0.2855 1.33726,-0.1777 1.85827,-0.7828 0.55754,-0.925 0.73254,-2.0514 0.64415,-3.1158 -0.11985,-0.73 -0.0306,-0.3711 -0.2689,-1.0765 0,0 0.6785,-0.2233 0.6785,-0.2233 l 0,0 c 0.26879,0.8354 0.17068,0.4188 0.30281,1.248 0.0809,1.2608 -0.11194,2.568 -0.82081,3.64 -0.76744,0.8543 -1.6048,1.4073 -2.76995,0.9177 -0.87514,-0.5569 -1.38663,-1.3459 -1.91457,-2.2223 -0.75783,-0.623 -1.64614,0.083 -2.19966,0.6574 -0.9135,1.0858 -1.68941,2.2356 -2.10088,3.6158 0,0 -0.70042,-0.1401 -0.70042,-0.1401 z"
       inkscape:connector-curvature="0" />
    <path
       style="color:#000000;fill-opacity:1;fill-rule:nonzero;stroke:none;stroke-width:0.69999999;marker:none;visibility:visible;display:inline;overflow:visible;enable-background:accumulate"
       id="path7000"
       d="m 61.389042,1022.8199 c 0,1.6291 0,3.2583 0,4.8874 0.064,1.1182 0.49944,2.1396 1.66687,2.375 1.1335,-0.1308 1.79415,-1.207 2.35261,-2.0927 0.70199,-1.3183 1.18844,-2.7275 1.68792,-4.1304 0.15048,-0.5419 0.31917,-1.075 0.52232,-1.5985 0.0929,-0.2394 0.49843,0.2216 0.63117,0.4414 0.0946,0.1566 -0.0524,0.3621 -0.0787,0.5431 -0.2037,1.5223 -0.27338,3.0575 -0.32075,4.5911 0.0677,1.3168 0.55616,2.4969 1.6888,3.2013 1.24377,0.6416 2.55146,0.5932 3.85886,0.2198 0,0 0.1914,0.6881 0.1914,0.6881 l 0,0 c -1.51678,0.4121 -3.01548,0.4522 -4.44367,-0.3117 -1.41414,-0.9747 -1.89784,-2.1155 -2.00933,-3.8195 0.0483,-1.5607 0.11983,-3.1228 0.32782,-4.6717 0.0975,-0.6699 -0.0684,-0.7345 0.84647,-0.7903 0.16163,-0.01 -0.0955,0.3095 -0.14857,0.4625 -0.0614,0.177 -0.36501,1.1914 -0.39297,1.2841 -0.51759,1.4526 -1.02223,2.9124 -1.75772,4.2735 -0.73972,1.1587 -1.60627,2.4041 -3.12048,2.405 -1.48039,-0.3866 -2.14525,-1.5777 -2.21637,-3.0701 0,-1.6291 0,-3.2583 0,-4.8874 0,0 0.71428,0 0.71428,0 z"
       inkscape:connector-curvature="0" />
    <path
       style="color:#000000;fill-opacity:1;fill-rule:nonzero;stroke:none;stroke-width:0.69999999;marker:none;visibility:visible;display:inline;overflow:visible;enable-background:accumulate"
       id="path7002"
       d="m 58.544542,1017.7498 c 1.7881,0 3.5762,0 5.36431,0 1.6176,0 3.23521,0 4.85282,0 0.40077,0 0.80154,0 1.20231,0 0,0 0,0.7143 0,0.7143 l 0,0 c -0.40077,0 -0.80154,0 -1.20231,0 -1.61761,0 -3.23522,0 -4.85282,0 -1.78811,0 -3.57621,0 -5.36431,0 0,0 0,-0.7143 0,-0.7143 z"
       inkscape:connector-curvature="0" />
    <path
       style="color:#000000;fill-opacity:1;fill-rule:nonzero;stroke:none;stroke-width:0.69999999;marker:none;visibility:visible;display:inline;overflow:visible;enable-background:accumulate"
       id="path6549-6-3-7"
       d="m 572.10775,1018.2884 c -0.30054,1.2063 -0.24455,2.4835 -0.5537,3.6851 -0.24729,-0.1091 -0.57347,-0.116 -0.74187,-0.3275 -0.30645,-0.3849 0.82383,-2.6263 1.0466,-2.9828 1.30774,-1.2217 1.95457,-0.082 2.27145,1.1775 0.13097,0.6716 0.1597,1.3553 0.1951,2.0365 0,0 -0.71334,0.037 -0.71334,0.037 l 0,0 c -0.0326,-0.6366 -0.0584,-1.2755 -0.17566,-1.9039 -0.12732,-0.5414 -0.25986,-1.5694 -0.97337,-0.9659 -0.33553,0.5264 -0.62141,1.0475 -0.78435,1.6561 -0.0451,0.1683 -0.0677,0.3418 -0.10036,0.5128 -0.0207,0.1085 0.0261,0.2565 -0.0598,0.3258 -0.18178,0.1465 -0.43622,0.1666 -0.65433,0.2499 0.33375,-1.1756 0.21658,-2.4588 0.54327,-3.6405 0,0 0.70041,0.14 0.70041,0.14 z"
       inkscape:connector-curvature="0" />
    <path
       style="color:#000000;fill-opacity:1;fill-rule:nonzero;stroke:none;stroke-width:0.69999999;marker:none;visibility:visible;display:inline;overflow:visible;enable-background:accumulate"
       id="path6559-0-1-4"
       d="m 574.31103,1030.52 c -0.53893,1.2084 -1.00725,2.4831 -0.47137,3.7607 0.80414,1.0936 1.85622,0.6342 2.85172,0.083 0,0 0.34147,0.6274 0.34147,0.6274 l 0,0 c -1.39993,0.7513 -2.8629,1.0949 -3.85868,-0.4514 -0.55295,-1.4998 -0.16816,-2.9279 0.49798,-4.3396 0,0 0.63888,0.3194 0.63888,0.3194 z"
       inkscape:connector-curvature="0" />
    <path
       style="fill:none;stroke:#000000;stroke-width:1.57850361px;stroke-linecap:butt;stroke-linejoin:miter;stroke-opacity:1"
       d="m 573.98876,1027.6286 c -2.6506,0 0,0 0,0 z"
       id="path6619-5-0-8"
       inkscape:connector-curvature="0" />
    <path
       style="color:#000000;fill-opacity:1;fill-rule:nonzero;stroke:none;stroke-width:0.69999999;marker:none;visibility:visible;display:inline;overflow:visible;enable-background:accumulate"
       id="path6549-6-3-71"
       d="m 75.671862,1018.0824 c -0.30054,1.2064 -0.24455,2.4835 -0.5537,3.6852 -0.24729,-0.1092 -0.57347,-0.1161 -0.74187,-0.3276 -0.30645,-0.3848 0.82383,-2.6262 1.0466,-2.9827 1.30774,-1.2217 1.95457,-0.082 2.27145,1.1775 0.13097,0.6716 0.1597,1.3552 0.1951,2.0364 0,0 -0.71334,0.037 -0.71334,0.037 l 0,0 c -0.0326,-0.6366 -0.0584,-1.2755 -0.17566,-1.9038 -0.12732,-0.5415 -0.25986,-1.5694 -0.97337,-0.966 -0.33553,0.5265 -0.62141,1.0476 -0.78435,1.6562 -0.0451,0.1683 -0.0677,0.3417 -0.10036,0.5128 -0.0207,0.1084 0.0261,0.2565 -0.0598,0.3258 -0.18178,0.1465 -0.43622,0.1665 -0.65433,0.2498 0.33375,-1.1755 0.21658,-2.4587 0.54327,-3.6405 0,0 0.70041,0.1401 0.70041,0.1401 z"
       inkscape:connector-curvature="0" />
    <path
       style="color:#000000;fill-opacity:1;fill-rule:nonzero;stroke:none;stroke-width:0.69999999;marker:none;visibility:visible;display:inline;overflow:visible;enable-background:accumulate"
       id="path6559-0-1-0"
       d="m 77.875142,1030.3141 c -0.53893,1.2083 -1.00725,2.483 -0.47137,3.7606 0.80414,1.0936 1.85622,0.6342 2.85172,0.083 0,0 0.34147,0.6274 0.34147,0.6274 l 0,0 c -1.39993,0.7514 -2.8629,1.0949 -3.85868,-0.4514 -0.55295,-1.4998 -0.16816,-2.9279 0.49798,-4.3396 0,0 0.63888,0.3195 0.63888,0.3195 z"
       inkscape:connector-curvature="0" />
    <path
       style="fill:none;stroke:#000000;stroke-width:1.57850361px;stroke-linecap:butt;stroke-linejoin:miter;stroke-opacity:1"
       d="m 77.552872,1027.4226 c -2.6506,0 0,0 0,0 z"
       id="path6619-5-0-84"
       inkscape:connector-curvature="0" />
    <text
       xml:space="preserve"
       style="font-size:40px;font-style:normal;font-weight:normal;line-height:125%;letter-spacing:0px;word-spacing:0px;fill:#000000;fill-opacity:1;stroke:none;font-family:Sans"
       x="189.90874"
       y="983.91107"
       id="text6541-5-2-1"
       sodipodi:linespacing="125%"><tspan
         sodipodi:role="line"
         x="189.90874"
         y="983.91107"
         style="font-size:14px;font-weight:bold;text-align:center;text-anchor:middle;-inkscape-font-specification:Sans Bold"
         id="tspan6545-6-5-1">stability</tspan></text>
    <path
       style="color:#000000;fill-opacity:1;fill-rule:nonzero;stroke:none;stroke-width:0.69999999;marker:none;visibility:visible;display:inline;overflow:visible;enable-background:accumulate"
       id="path6990-9"
       d="m 315.03562,859.59296 c 0,1.9526 0,3.90521 0,5.85782 0,1.95278 0,3.90556 0,5.85834 0,1.74978 0,3.49956 0,5.24934 0,2.0371 0,4.07421 0,6.11132 0,1.7006 0,3.4012 0,5.1018 0,1.8001 0,3.6002 0,5.4003 -0.11126,1.51562 0.0963,2.98804 0.31953,4.47955 0.2382,1.61286 0.32264,3.24145 0.371,4.86924 0.0364,1.76737 0.0291,3.53532 0.0284,5.30297 -0.002,1.80242 -0.003,3.60484 -0.004,5.40725 -6.5e-4,1.63617 -6.6e-4,3.27233 -6.9e-4,4.90849 -1e-5,1.77691 10e-6,3.55382 2e-5,5.33073 10e-6,1.72008 10e-6,3.44016 10e-6,5.16024 0,2.2491 0,4.4982 0,6.7473 0,0.92216 0,1.84433 0,2.76649 0,0 -0.71429,0 -0.71429,0 l 0,0 c 0,-0.92216 0,-1.84433 0,-2.76649 0,-2.2491 0,-4.4982 0,-6.7473 0,-1.72008 0,-3.44016 -10e-6,-5.16023 -1e-5,-1.77692 -3e-5,-3.55384 -2e-5,-5.33076 4e-5,-1.63627 5e-5,-3.27254 6.9e-4,-4.90881 8.7e-4,-1.80241 0.002,-3.60481 0.004,-5.40721 7.6e-4,-1.76049 0.008,-3.52128 -0.0281,-5.28149 -0.0474,-1.5995 -0.12964,-3.19986 -0.36344,-4.78473 -0.22824,-1.526 -0.43747,-3.03513 -0.3274,-4.58524 0,-1.8001 0,-3.6002 0,-5.4003 0,-1.7006 0,-3.4012 0,-5.1018 0,-2.03711 0,-4.07422 0,-6.11132 0,-1.74978 0,-3.49956 0,-5.24934 0,-1.95278 0,-3.90556 0,-5.85834 0,-1.95261 0,-3.90522 0,-5.85782 0,0 0.71429,0 0.71429,0 z"
       inkscape:connector-curvature="0" />
    <path
       style="color:#000000;fill-opacity:1;fill-rule:nonzero;stroke:none;stroke-width:0.69999999;marker:none;visibility:visible;display:inline;overflow:visible;enable-background:accumulate"
       id="path6992-2"
       d="m 310.22051,923.57895 c 0.92923,1.41829 1.82272,2.86084 2.52602,4.40556 0.71733,1.20263 1.13383,2.55038 1.80069,3.77582 0.62189,1.1606 1.05384,2.42329 1.42313,3.68522 0.11383,0.49953 0.21977,0.99973 0.35343,1.49409 0.008,0.0301 0.003,-0.0853 -0.0282,-0.0893 -0.18806,-0.0246 -0.42623,0.13623 -0.56887,0.0112 -0.10732,-0.094 0.0729,-0.27591 0.10942,-0.41387 0.36983,-2.25794 0.5758,-4.53666 0.9687,-6.79371 0.33301,-2.15435 0.78021,-4.27101 1.3241,-6.37935 0,0 0.69164,0.17844 0.69164,0.17844 l 0,0 c -0.53926,2.08992 -0.98243,4.18779 -1.31207,6.32356 -0.39738,2.27709 -0.59674,4.57746 -0.98184,6.85373 -0.56708,2.14248 -1.26807,-0.47528 -1.24199,-0.98469 -0.35334,-1.21426 -0.76901,-2.42915 -1.3659,-3.54582 -0.66776,-1.24417 -1.10496,-2.59873 -1.82262,-3.82001 -0.6788,-1.49914 -1.55137,-2.89419 -2.44707,-4.27231 0,0 0.57143,-0.42857 0.57143,-0.42857 z"
       inkscape:connector-curvature="0" />
    <path
       style="color:#000000;fill-opacity:1;fill-rule:nonzero;stroke:none;stroke-width:0.69999999;marker:none;visibility:visible;display:inline;overflow:visible;enable-background:accumulate"
       id="path6990-9-7"
       d="m 550.78568,852.74141 c 0,1.9526 0,3.90521 0,5.85782 0,1.95278 0,3.90556 0,5.85834 0,1.74978 0,3.49956 0,5.24934 0,2.0371 0,4.07421 0,6.11132 0,1.7006 0,3.4012 0,5.1018 0,1.8001 0,3.6002 0,5.4003 -0.11125,1.51562 0.0963,2.98804 0.31954,4.47955 0.23819,1.61286 0.32263,3.24145 0.37099,4.86924 0.0364,1.76737 0.0291,3.53532 0.0284,5.30297 -0.002,1.80242 -0.003,3.60484 -0.004,5.40725 -6.4e-4,1.63617 -6.5e-4,3.27233 -6.9e-4,4.90849 -10e-6,1.77691 10e-6,3.55382 2e-5,5.33073 10e-6,1.72008 10e-6,3.44016 10e-6,5.16024 0,2.2491 0,4.4982 0,6.7473 0,0.92216 0,1.84433 0,2.76649 0,0 -0.71428,0 -0.71428,0 l 0,0 c 0,-0.92216 0,-1.84433 0,-2.76649 0,-2.2491 0,-4.4982 0,-6.7473 0,-1.72008 -10e-6,-3.44016 -10e-6,-5.16023 -10e-6,-1.77692 -3e-5,-3.55384 -2e-5,-5.33076 3e-5,-1.63627 4e-5,-3.27254 6.9e-4,-4.90881 8.7e-4,-1.80241 0.003,-3.60481 0.004,-5.40721 7.6e-4,-1.76049 0.008,-3.52128 -0.0281,-5.28149 -0.0474,-1.5995 -0.12964,-3.19986 -0.36345,-4.78473 -0.22824,-1.526 -0.43746,-3.03513 -0.3274,-4.58524 0,-1.8001 0,-3.6002 0,-5.4003 0,-1.7006 0,-3.4012 0,-5.1018 0,-2.03711 0,-4.07422 0,-6.11132 0,-1.74978 0,-3.49956 0,-5.24934 0,-1.95278 0,-3.90556 0,-5.85834 0,-1.95261 0,-3.90522 0,-5.85782 0,0 0.71429,0 0.71429,0 z"
       inkscape:connector-curvature="0" />
    <path
       style="color:#000000;fill-opacity:1;fill-rule:nonzero;stroke:none;stroke-width:0.69999999;marker:none;visibility:visible;display:inline;overflow:visible;enable-background:accumulate"
       id="path6992-2-3"
       d="m 545.97058,916.7274 c 0.92922,1.41829 1.82272,2.86084 2.52601,4.40556 0.71734,1.20263 1.13383,2.55038 1.80069,3.77582 0.62189,1.1606 1.05384,2.42329 1.42314,3.68522 0.11382,0.49953 0.21976,0.99973 0.35343,1.49409 0.008,0.0301 0.003,-0.0853 -0.0282,-0.0893 -0.18806,-0.0246 -0.42624,0.13623 -0.56888,0.0112 -0.10732,-0.094 0.0729,-0.27591 0.10942,-0.41387 0.36984,-2.25794 0.5758,-4.53666 0.9687,-6.79371 0.33301,-2.15435 0.78021,-4.27101 1.3241,-6.37935 0,0 0.69164,0.17844 0.69164,0.17844 l 0,0 c -0.53926,2.08992 -0.98243,4.18779 -1.31207,6.32356 -0.39738,2.27709 -0.59674,4.57746 -0.98184,6.85373 -0.56708,2.14248 -1.26807,-0.47528 -1.24199,-0.98469 -0.35333,-1.21426 -0.76901,-2.42915 -1.36589,-3.54582 -0.66777,-1.24417 -1.10496,-2.59873 -1.82263,-3.82001 -0.6788,-1.49914 -1.55137,-2.89419 -2.44707,-4.27231 0,0 0.57143,-0.42857 0.57143,-0.42857 z"
       inkscape:connector-curvature="0" />
    <flowRoot
       xml:space="preserve"
       id="flowRoot7130"
       style="font-size:40px;font-style:normal;font-weight:normal;line-height:125%;letter-spacing:0px;word-spacing:0px;fill:#000000;fill-opacity:1;stroke:none;font-family:Sans"
       transform="translate(0,502.36218)"><flowRegion
         id="flowRegion7132"><rect
           id="rect7134"
           width="60.609154"
           height="43.436558"
           x="22.223356"
           y="138.86792" /></flowRegion><flowPara
         id="flowPara7136">n</flowPara></flowRoot>    <text
       xml:space="preserve"
       style="font-size:40px;font-style:normal;font-weight:normal;line-height:125%;letter-spacing:0px;word-spacing:0px;fill:#000000;fill-opacity:1;stroke:none;font-family:Sans"
       x="269.37054"
       y="893.60931"
       id="text6541-2-6-1-3"
       sodipodi:linespacing="125%"><tspan
         sodipodi:role="line"
         x="269.37054"
         y="893.60931"
         style="font-size:14px;text-align:center;text-anchor:middle"
         id="tspan6951-8-9">numerical</tspan><tspan
         sodipodi:role="line"
         x="269.37054"
         y="911.10931"
         style="font-size:14px;text-align:center;text-anchor:middle"
         id="tspan6988-2">scheme</tspan></text>
    <path
       style="color:#000000;fill-opacity:1;fill-rule:nonzero;stroke:none;stroke-width:0.69999999;marker:none;visibility:visible;display:inline;overflow:visible;enable-background:accumulate"
       id="path6764-9-2"
       d="m 130.69885,997.51582 c 2.12719,0 4.25438,0 6.38157,0 2.38186,0 4.76372,0 7.14558,0 3.32136,0.0145 6.64295,-0.0575 9.96177,0.0858 3.21152,0.26634 6.44024,0.32891 9.64759,0.63522 3.00569,0.41995 6.03844,0.53959 9.06829,0.63213 2.82782,0.0414 5.63751,0.40551 8.45721,0.60022 2.57292,0.16919 5.15237,0.17675 7.72964,0.18982 2.87224,-0.10597 5.72713,0.2058 8.58498,0.43409 2.49363,0.2084 4.99586,0.2467 7.49657,0.2706 2.81142,0.018 5.62292,0.015 8.43438,0.013 2.49699,0 4.99398,0 7.49098,0 2.32923,-4e-4 4.65845,-4e-4 6.98768,-4e-4 2.05983,0 4.11966,0 6.17949,0 2.42065,0 4.8413,0 7.26195,0 1.94789,0 3.89578,0 5.84367,0 1.62834,0 3.25668,0 4.88502,0 0.29443,0 0.58887,0 0.8833,0 0,0 0,0.7143 0,0.7143 l 0,0 c -0.29443,0 -0.58887,0 -0.8833,0 -1.62834,0 -3.25668,0 -4.88502,0 -1.94789,0 -3.89578,0 -5.84367,0 -2.42065,0 -4.8413,0 -7.26195,0 -2.05983,0 -4.11966,0 -6.17949,0 -2.32918,0 -4.65835,0 -6.98753,4e-4 -2.4969,5e-4 -4.99381,10e-4 -7.49071,0 -2.81388,0 -5.6278,0 -8.44164,-0.013 -2.51741,-0.024 -5.03633,-0.063 -7.54661,-0.2729 -2.84016,-0.2269 -5.67722,-0.538 -8.53173,-0.4318 -2.59248,-0.013 -5.18715,-0.021 -7.77524,-0.1915 -2.81057,-0.19424 -5.61119,-0.55684 -8.42979,-0.59885 -3.04529,-0.0931 -6.09355,-0.21347 -9.1146,-0.63505 -3.19473,-0.30705 -6.41148,-0.36522 -9.6104,-0.63263 -3.30845,-0.14397 -6.61983,-0.0696 -9.93084,-0.0851 -2.38186,0 -4.76372,0 -7.14558,0 -2.12719,0 -4.25438,0 -6.38157,0 0,0 0,-0.71428 0,-0.71428 z"
       inkscape:connector-curvature="0" />
    <path
       style="color:#000000;fill-opacity:1;fill-rule:nonzero;stroke:none;stroke-width:0.69999999;marker:none;visibility:visible;display:inline;overflow:visible;enable-background:accumulate"
       id="path6766-4-8"
       d="m 235.05461,994.03677 c 4.25554,1.16225 8.46608,2.47112 12.66521,3.82166 2.95794,1.03659 6.01838,1.82164 8.94538,2.94657 0.39577,0.2496 0.68287,0.2956 -0.12412,0.9302 -0.0443,0.035 -2.92486,0.4752 -3.13676,0.5188 -2.37201,0.5354 -4.73725,1.1223 -7.07507,1.7934 -1.67783,0.4647 -3.29153,1.1136 -4.97312,1.5665 0,0 -0.18545,-0.6898 -0.18545,-0.6898 l 0,0 c 1.67807,-0.4504 3.28662,-1.103 4.96161,-1.5633 2.35572,-0.6753 4.73835,-1.2679 7.12849,-1.8065 0.25704,-0.053 2.8873,-0.6037 3.05189,-0.4958 0.1615,0.1058 0.20317,0.3359 0.24676,0.524 0.0141,0.061 -0.10068,-0.074 -0.15102,-0.111 -2.91227,-1.1248 -5.96406,-1.89638 -8.90729,-2.93308 -4.17338,-1.34228 -8.35835,-2.64217 -12.5866,-3.80123 0,0 0.14009,-0.70042 0.14009,-0.70042 z"
       inkscape:connector-curvature="0" />
    <path
       style="color:#000000;fill-opacity:1;fill-rule:nonzero;stroke:none;stroke-width:0.69999999;marker:none;visibility:visible;display:inline;overflow:visible;enable-background:accumulate"
       id="path6768-8-6"
       d="m 129.02512,999.5255 c 2.18048,-0.85483 4.39321,-1.6101 6.61366,-2.35292 3.04979,-0.94648 6.10682,-1.87032 9.18962,-2.70388 1.434,-0.36317 2.8929,-0.60922 4.34814,-0.86751 0,0 0.12481,0.7033 0.12481,0.7033 l 0,0 c -1.43454,0.25456 -2.87278,0.49656 -4.28658,0.85375 -3.06945,0.82926 -6.11278,1.75011 -9.14939,2.69172 -2.18878,0.73222 -4.36921,1.47791 -6.52082,2.31444 0,0 -0.31944,-0.6389 -0.31944,-0.6389 z"
       inkscape:connector-curvature="0" />
    <path
       style="color:#000000;fill-opacity:1;fill-rule:nonzero;stroke:none;stroke-width:0.69999999;marker:none;visibility:visible;display:inline;overflow:visible;enable-background:accumulate"
       id="path6770-5-2"
       d="m 130.69885,996.80154 c 2.27781,0.17814 4.45023,0.87133 6.58331,1.64902 2.93301,1.1501 5.75699,2.55404 8.57952,3.94764 2.76478,1.3127 5.65914,2.2822 8.63571,2.9734 0,0 -0.16172,0.6957 -0.16172,0.6957 l 0,0 c -3.02962,-0.705 -5.97644,-1.691 -8.79023,-3.0286 -2.79931,-1.3822 -5.59986,-2.775 -8.50813,-3.91713 -2.0548,-0.75041 -4.14544,-1.42097 -6.33846,-1.60575 0,0 0,-0.71428 0,-0.71428 z"
       inkscape:connector-curvature="0" />
    <path
       style="color:#000000;fill-opacity:1;fill-rule:nonzero;stroke:none;stroke-width:0.69999999;marker:none;visibility:visible;display:inline;overflow:visible;enable-background:accumulate"
       id="path7198"
       d="m 79.378192,899.56429 c 0,2.65838 0,5.31677 0,7.97516 0,2.40562 0,4.81124 0,7.21687 0,2.32221 0,4.64441 0,6.96662 0,2.17425 0,4.34849 0,6.52273 0,2.23832 0,4.47664 0,6.71497 0,2.04349 0,4.08699 0,6.13049 0,2.01837 0,4.03673 0,6.0551 0,0.33654 0,0.67308 0,1.00962 0,0 -1.01015,0 -1.01015,0 l 0,0 c 0,-0.33654 0,-0.67308 0,-1.00962 0,-2.01837 0,-4.03673 0,-6.0551 0,-2.0435 0,-4.087 0,-6.13049 0,-2.23833 0,-4.47665 0,-6.71497 0,-2.17424 0,-4.34848 0,-6.52273 0,-2.32221 0,-4.64441 0,-6.96662 0,-2.40563 0,-4.81125 0,-7.21687 0,-2.65839 0,-5.31678 0,-7.97516 0,0 1.01015,0 1.01015,0 z"
       inkscape:connector-curvature="0" />
    <path
       style="color:#000000;fill-opacity:1;fill-rule:nonzero;stroke:none;stroke-width:0.69999999;marker:none;visibility:visible;display:inline;overflow:visible;enable-background:accumulate"
       id="path7200"
       d="m 77.718942,899.32407 c 2.30096,0 4.60192,0 6.90288,0 2.03829,0.25022 4.06545,0.64175 6.107468,0.82797 2.26482,0.17523 4.53337,0.17435 6.80043,0.18639 1.9339,0.006 3.8678,10e-4 5.80169,-10e-4 2.16509,-0.002 4.33017,-0.003 6.49525,-0.003 2.84972,-2.5e-4 5.69943,-1.9e-4 8.54915,-1.8e-4 2.30586,2e-5 4.61172,3e-5 6.91759,4e-5 1.84579,-0.0798 3.69105,-0.48996 5.52398,-0.84884 2.7385,-0.55662 5.49325,-0.87268 8.25188,-1.05554 2.18095,-0.12504 4.36375,-0.12412 6.54586,-0.12686 1.9946,10e-4 3.98919,0.006 5.98379,0.008 2.03646,0.002 4.07293,0.002 6.10939,0.003 2.28411,-0.36927 4.58285,-0.52691 6.86299,-0.94437 2.56875,-0.59726 5.15873,-0.83572 7.75221,-0.96623 2.67335,-0.1158 5.34787,-0.11714 8.02202,-0.11955 2.64805,4.5e-4 5.2961,0.005 7.94416,0.007 2.16496,0.002 4.32992,0.002 6.49489,0.002 1.86452,10e-5 3.72905,5e-5 5.59358,3e-5 1.75809,-2e-5 3.51619,-3e-5 5.27429,-3e-5 1.68563,-10e-6 3.37127,-10e-6 5.0569,-10e-6 1.52384,0 3.04767,0 4.57151,0 1.50089,0 3.00179,0 4.50268,0 1.3962,0 2.7924,0 4.1886,0 1.31504,0 2.63008,0 3.94512,0 0.43673,0 0.87347,0 1.3102,0 0,0 0,1.01016 0,1.01016 l 0,0 c -0.43673,0 -0.87347,0 -1.3102,0 -1.31504,0 -2.63008,0 -3.94512,0 -1.3962,0 -2.7924,0 -4.1886,0 -1.50089,0 -3.00179,0 -4.50268,0 -1.52384,0 -3.04767,0 -4.57151,0 -1.68563,0 -3.37127,0 -5.0569,0 -1.7581,0 -3.51619,10e-6 -5.27429,3e-5 -1.86454,3e-5 -3.72908,8e-5 -5.59362,-3e-5 -2.16509,-2e-4 -4.33018,-5.6e-4 -6.49528,-0.002 -2.64778,-0.003 -5.29556,-0.007 -7.94335,-0.007 -2.66714,0.002 -5.33465,0.004 -8.001,0.11901 -2.57485,0.12933 -5.14617,0.36605 -7.69641,0.95975 -2.30592,0.41964 -4.63,0.58696 -6.94023,0.95139 -2.03661,-1.8e-4 -4.07323,-4e-4 -6.10985,-0.003 -1.99425,-0.002 -3.9885,-0.007 -5.98275,-0.008 -2.1729,0.003 -4.34648,0.002 -6.51822,0.12593 -2.74044,0.18138 -5.47701,0.49546 -8.19744,1.04843 -1.86038,0.36329 -3.73295,0.77968 -5.6066,0.85688 -2.30587,-10e-6 -4.61173,-2e-5 -6.91759,-3e-5 -2.8497,-2e-5 -5.69939,-7e-5 -8.54909,1.7e-4 -2.16492,2.9e-4 -4.32985,5.3e-4 -6.49477,0.003 -1.93483,0.002 -3.86966,0.007 -5.80449,10e-4 -2.27926,-0.0121 -4.56001,-0.0114 -6.83699,-0.18816 -2.029078,-0.18549 -4.043788,-0.56784 -6.068648,-0.8262 -2.30096,0 -4.60192,0 -6.90288,0 0,0 0,-1.01015 0,-1.01015 z"
       inkscape:connector-curvature="0" />
    <path
       style="color:#000000;fill-opacity:1;fill-rule:nonzero;stroke:none;stroke-width:0.69999999;marker:none;visibility:visible;display:inline;overflow:visible;enable-background:accumulate"
       id="path6992-2-3-3"
       d="m 73.868972,934.45642 c 0.92922,1.41829 1.82272,2.86084 2.52601,4.40556 0.71734,1.20263 1.13383,2.55038 1.80069,3.77582 0.62189,1.1606 1.05384,2.42329 1.42314,3.68522 0.11382,0.49953 0.21976,0.99973 0.35343,1.49409 0.008,0.0301 0.003,-0.0853 -0.0282,-0.0893 -0.18806,-0.0246 -0.42624,0.13623 -0.56888,0.0112 -0.10732,-0.094 0.0729,-0.27591 0.10942,-0.41387 0.36984,-2.25794 0.5758,-4.53666 0.9687,-6.79371 0.33301,-2.15435 0.78021,-4.27101 1.3241,-6.37935 0,0 0.69164,0.17844 0.69164,0.17844 l 0,0 c -0.53926,2.08992 -0.98243,4.18779 -1.31207,6.32356 -0.39738,2.27709 -0.59674,4.57746 -0.98184,6.85373 -0.56708,2.14248 -1.26807,-0.47528 -1.24199,-0.98469 -0.35333,-1.21426 -0.76901,-2.42915 -1.36589,-3.54582 -0.66777,-1.24417 -1.10496,-2.59873 -1.82263,-3.82001 -0.6788,-1.49914 -1.55137,-2.89419 -2.44707,-4.27231 0,0 0.57143,-0.42857 0.57143,-0.42857 z"
       inkscape:connector-curvature="0" />
  </g>
</svg>
