<?xml version="1.0" encoding="UTF-8" standalone="no"?>
<!-- Created with Inkscape (http://www.inkscape.org/) -->

<svg
   xmlns:dc="http://purl.org/dc/elements/1.1/"
   xmlns:cc="http://creativecommons.org/ns#"
   xmlns:rdf="http://www.w3.org/1999/02/22-rdf-syntax-ns#"
   xmlns:svg="http://www.w3.org/2000/svg"
   xmlns="http://www.w3.org/2000/svg"
   xmlns:sodipodi="http://sodipodi.sourceforge.net/DTD/sodipodi-0.dtd"
   xmlns:inkscape="http://www.inkscape.org/namespaces/inkscape"
   id="svg3036"
   version="1.1"
   inkscape:version="0.48.3.1 r9886"
   width="800"
   height="600"
   sodipodi:docname="discretisation_schemes.png">
  <metadata
     id="metadata3042">
    <rdf:RDF>
      <cc:Work
         rdf:about="">
        <dc:format>image/svg+xml</dc:format>
        <dc:type
           rdf:resource="http://purl.org/dc/dcmitype/StillImage" />
        <dc:title></dc:title>
      </cc:Work>
    </rdf:RDF>
  </metadata>
  <defs
     id="defs3040" />
  <sodipodi:namedview
     pagecolor="#ffffff"
     bordercolor="#666666"
     borderopacity="1"
     objecttolerance="10"
     gridtolerance="10"
     guidetolerance="10"
     inkscape:pageopacity="0"
     inkscape:pageshadow="2"
     inkscape:window-width="1107"
     inkscape:window-height="663"
     id="namedview3038"
     showgrid="false"
     inkscape:zoom="0.83"
     inkscape:cx="400"
     inkscape:cy="295.90068"
     inkscape:window-x="28"
     inkscape:window-y="107"
     inkscape:window-maximized="0"
     inkscape:current-layer="svg3036" />
  <path
     style="stroke-width:0.1;stroke-miterlimit:4;stroke-dasharray:0.4, 0.4;stroke-dashoffset:0"
     id="path3056"
     d="m 368.16867,187.66496 c 0,-2.74795 0,-5.49589 0,-8.24384 0,-2.56009 0,-5.12017 0,-7.68026 0,-2.41387 0,-4.82773 0,-7.2416 -0.0272,-0.0558 -0.29928,-6.48801 1.69958,-1.97307 0.73445,1.85544 1.50957,3.6987 2.18636,5.57817 0.80142,1.6888 1.55216,3.38077 2.501,4.99467 1.17585,2.10047 2.2476,4.25548 3.38079,6.37875 0.94309,1.97163 2.08045,3.87541 3.53598,5.51256 1.05177,0.90059 0.8849,-0.70204 1.00772,-1.56013 0.26087,-2.2515 0.20485,-4.47744 -0.1638,-6.70692 -0.29467,-2.46909 -1.04385,-4.83956 -1.52696,-7.27221 -0.37189,-2.02286 -0.46978,-4.07871 -0.54034,-6.12961 0,0 1.20411,-0.0413 1.20411,-0.0413 l 0,0 c 0.0679,1.98612 0.16025,3.97726 0.51805,5.93663 0.48389,2.44545 1.23962,4.82833 1.53392,7.31061 0.38642,2.3529 0.44652,4.70471 0.16683,7.07933 -0.28259,1.8543 -0.92685,4.00942 -3.10336,2.18027 -1.50405,-1.71915 -2.71923,-3.67872 -3.69519,-5.74217 -1.12467,-2.10941 -2.19026,-4.24925 -3.35696,-6.33617 -0.98313,-1.67933 -1.77137,-3.43729 -2.59572,-5.19713 -0.66593,-1.86009 -1.43577,-3.68294 -2.16279,-5.51769 -0.3053,-0.78376 -0.35631,-0.46829 0.6156,-1.24311 0.12184,-0.0971 -0.0779,2.5583 0,2.74852 0,2.41387 0,4.82774 0,7.24161 0,2.56008 0,5.12017 0,7.68025 0,2.74795 0,5.4959 0,8.24384 0,0 -1.20482,0 -1.20482,0 z"
     inkscape:connector-curvature="0" />
  <path
     style="stroke-width:0.1;stroke-miterlimit:4;stroke-dasharray:0.4, 0.4;stroke-dashoffset:0"
     id="path3064"
     d="m 550.74698,295.90131 c 0,2.74795 0,5.4959 0,8.24384 0,2.56009 0,5.12017 0,7.68026 -0.10527,1.77892 0.14381,3.57589 2.15459,3.87666 2.22515,0.11154 4.33816,-0.69976 6.4859,-1.16683 1.64439,-0.28652 0.82042,-0.16041 2.47188,-0.37851 0,0 0.15725,1.19451 0.15725,1.19451 l 0,0 c -1.58582,0.20808 -0.79467,0.0877 -2.37342,0.36137 -2.31293,0.50164 -4.59031,1.38295 -6.99239,1.16789 -2.52926,-0.63717 -3.28001,-2.56002 -3.10863,-5.05509 0,-2.56009 0,-5.12017 0,-7.68026 0,-2.74794 0,-5.49589 0,-8.24384 0,0 1.20482,0 1.20482,0 z"
     inkscape:connector-curvature="0" />
  <path
     style="stroke-width:0.1;stroke-miterlimit:4;stroke-dasharray:0.4, 0.4;stroke-dashoffset:0"
     id="path3066"
     d="m 548.33738,305.28927 c 2.74766,-0.5288 5.53688,-0.77065 8.32643,-0.9358 1.80902,-0.0769 0.91134,-0.0449 2.693,-0.0965 0,0 0.0349,1.20431 0.0349,1.20431 l 0,0 c -1.75874,0.0508 -0.87315,0.0194 -2.65674,0.0949 -2.73412,0.16142 -5.46802,0.39725 -8.16126,0.9145 0,0 -0.23628,-1.18142 -0.23628,-1.18142 z"
     inkscape:connector-curvature="0" />
  <path
     style="stroke-width:0.1;stroke-miterlimit:4;stroke-dasharray:0.4, 0.4;stroke-dashoffset:0"
     id="path3068"
     d="m 548.23179,295.53799 c 3.53971,-1.09297 7.15427,-1.93675 10.79622,-2.60913 0.58467,-0.0886 1.16934,-0.17721 1.75401,-0.26581 0,0 0.18032,1.19125 0.18032,1.19125 l 0,0 c -0.57192,0.0865 -1.14384,0.17292 -1.71576,0.25939 -3.56432,0.65702 -7.09969,1.48555 -10.56733,2.54294 0,0 -0.44746,-1.11864 -0.44746,-1.11864 z"
     inkscape:connector-curvature="0" />
  <path
     style="stroke-width:0.1;stroke-miterlimit:4;stroke-dasharray:0.4, 0.4;stroke-dashoffset:0"
     id="path3070"
     d="m 379.595,428.13334 c -2.67774,-0.55769 -5.35357,-0.80049 -8.07592,-0.57246 -2.21129,0.38901 -3.89072,1.77803 -4.84668,3.78118 -0.24412,1.82823 1.47523,2.29454 2.92116,2.64582 2.29428,0.38972 4.63278,0.35963 6.95229,0.36368 2.42571,-0.10417 4.7763,0.43 6.88876,1.61107 1.96795,1.46869 1.91925,3.31246 1.28217,5.45498 -1.06827,2.5917 -3.34478,3.91057 -5.83962,4.88739 -3.08121,1.28427 -6.36882,1.87412 -9.66808,2.23932 -1.67618,0.0908 -3.10624,-0.17198 -4.50774,-1.07663 0,0 0.67617,-0.99719 0.67617,-0.99719 l 0,0 c 1.10857,0.80666 2.34408,0.906 3.69939,0.87627 3.19593,-0.35175 6.38144,-0.91937 9.36539,-2.16537 2.14519,-0.81945 4.15294,-1.90894 5.12028,-4.1093 0.47846,-1.58664 0.74252,-2.89881 -0.72359,-4.06218 -1.91236,-1.11028 -4.09091,-1.53809 -6.29526,-1.45355 -2.41669,-0.004 -4.85396,0.0254 -7.24188,-0.39952 -2.24302,-0.57238 -4.32977,-1.65974 -3.70917,-4.34936 1.20356,-2.36345 3.15594,-4.01614 5.82684,-4.44731 2.83507,-0.23285 5.62387,0.009 8.41177,0.59174 0,0 -0.23628,1.18142 -0.23628,1.18142 z"
     inkscape:connector-curvature="0" />
  <path
     style="stroke-width:0.1;stroke-miterlimit:4;stroke-dasharray:0.4, 0.4;stroke-dashoffset:0"
     id="path3072"
     d="m 240.79517,291.08208 c 0,3.71987 0,7.43975 0,11.15961 -0.0747,3.0784 0.56042,6.07129 0.86755,9.10426 0.43207,2.29031 0.92179,4.53994 1.78958,6.60276 0.066,0.0108 0.14799,0.0937 0.19786,0.0341 0.0945,-0.11277 -0.0364,-0.34928 0.002,-0.51156 0.2214,-0.92838 0.60815,-1.78444 0.90664,-2.67048 0.69595,-2.76032 1.21593,-5.59902 1.89499,-8.3678 0.53559,-1.56961 0.64221,-5.79207 2.48152,-5.85068 0.31254,-0.009 0.59444,0.26244 0.89166,0.39365 1.69947,1.56897 2.74961,4.09362 4.00588,6.2421 1.12284,2.32154 2.2313,4.64111 3.41502,6.9086 1.40439,2.17037 1.07889,1.20791 1.34777,-0.6732 0.32672,-3.49068 0.28898,-7.02133 0.29594,-10.53333 -4e-4,-3.43812 -0.01,-6.87622 -0.0157,-10.31434 0,0 1.20482,-0.004 1.20482,-0.004 l 0,0 c 0.006,3.44089 0.0153,6.88177 0.0157,10.32268 -0.007,3.62066 0.0326,7.26195 -0.32079,10.85844 -0.56069,3.50641 -1.78091,4.17615 -3.51198,1.28436 -1.16979,-2.24514 -2.27343,-4.53475 -3.37629,-6.83843 -1.14629,-1.96892 -2.11675,-4.25709 -3.6005,-5.79506 -0.54962,-1.89435 -1.53751,4.27294 -1.68998,4.51455 -0.69677,2.82197 -1.21224,5.72411 -1.94232,8.53051 -0.6104,1.80317 -1.44137,5.34976 -3.25217,3.27056 -0.92843,-2.24955 -1.49107,-4.68327 -1.93368,-7.18251 -0.31316,-3.10611 -0.9641,-6.17069 -0.87867,-9.3253 0,-3.71987 0,-7.43974 0,-11.15962 0,0 1.20482,0 1.20482,0 z"
     inkscape:connector-curvature="0" />
  <path
     style="stroke-width:0.1;stroke-miterlimit:4;stroke-dasharray:0.4, 0.4;stroke-dashoffset:0"
     id="path3076"
     d="m 401.08617,172.43236 c -1.53037,1.35453 -2.86742,3.0849 -2.77001,5.2114 0.63419,1.39793 2.46069,1.56344 3.8213,1.49483 1.48202,-0.36136 2.64193,-1.49448 2.35111,-3.08214 -0.36636,-1.49721 -1.37389,-2.56618 -2.73481,-3.21468 -0.72402,-0.2212 -1.17164,0.005 -1.7713,0.38241 0,0 -0.58559,-1.05294 -0.58559,-1.05294 l 0,0 c 0.98983,-0.50825 1.77901,-0.81624 2.89031,-0.40977 1.71524,0.87016 2.97626,2.22596 3.39791,4.15377 0.18872,2.32504 -1.21527,3.96704 -3.50621,4.42745 -2.08726,0.0462 -4.42915,-0.39626 -5.06736,-2.67796 0.006,-2.53301 1.34695,-4.58299 3.25176,-6.19623 0,0 0.72289,0.96386 0.72289,0.96386 z"
     inkscape:connector-curvature="0" />
  <path
     style="stroke-width:0.1;stroke-miterlimit:4;stroke-dasharray:0.4, 0.4;stroke-dashoffset:0"
     id="path3076-8"
     d="m 532.71554,301.34447 c -1.53037,1.35454 -2.86742,3.0849 -2.77001,5.2114 0.63419,1.39793 2.46069,1.56345 3.8213,1.49483 1.48202,-0.36136 2.64193,-1.49448 2.35111,-3.08214 -0.36636,-1.4972 -1.37389,-2.56618 -2.73481,-3.21468 -0.72402,-0.2212 -1.17164,0.005 -1.7713,0.38241 0,0 -0.58559,-1.05294 -0.58559,-1.05294 l 0,0 c 0.98983,-0.50825 1.77901,-0.81624 2.89031,-0.40977 1.71524,0.87016 2.97626,2.22596 3.39791,4.15377 0.18872,2.32504 -1.21527,3.96704 -3.50621,4.42746 -2.08726,0.0462 -4.42915,-0.39627 -5.06736,-2.67797 0.006,-2.53301 1.34695,-4.58299 3.25176,-6.19623 0,0 0.72289,0.96386 0.72289,0.96386 z"
     inkscape:connector-curvature="0" />
  <path
     style="stroke-width:0.1;stroke-miterlimit:4;stroke-dasharray:0.4, 0.4;stroke-dashoffset:0"
     id="path3076-2"
     d="m 275.22156,303.77821 c -1.53037,1.35454 -2.86742,3.0849 -2.77001,5.2114 0.63419,1.39793 2.46069,1.56345 3.8213,1.49483 1.48202,-0.36136 2.64193,-1.49448 2.35111,-3.08214 -0.36636,-1.4972 -1.37389,-2.56618 -2.73481,-3.21468 -0.72402,-0.2212 -1.17164,0.005 -1.7713,0.38241 0,0 -0.58559,-1.05294 -0.58559,-1.05294 l 0,0 c 0.98983,-0.50825 1.77901,-0.81624 2.89031,-0.40977 1.71524,0.87016 2.97626,2.22596 3.39791,4.15377 0.18872,2.32504 -1.21527,3.96704 -3.50621,4.42746 -2.08726,0.0462 -4.42915,-0.39627 -5.06736,-2.67797 0.006,-2.53301 1.34695,-4.58299 3.25176,-6.19623 0,0 0.72289,0.96386 0.72289,0.96386 z"
     inkscape:connector-curvature="0" />
  <path
     style="stroke-width:0.1;stroke-miterlimit:4;stroke-dasharray:0.4, 0.4;stroke-dashoffset:0"
     id="path3076-6"
     d="m 402.57096,432.62157 c -1.53037,1.35454 -2.86742,3.08491 -2.77001,5.2114 0.63419,1.39793 2.46069,1.56345 3.8213,1.49483 1.48202,-0.36136 2.64193,-1.49448 2.35111,-3.08214 -0.36636,-1.4972 -1.37389,-2.56618 -2.73481,-3.21468 -0.72402,-0.22119 -1.17164,0.005 -1.7713,0.38241 0,0 -0.58559,-1.05293 -0.58559,-1.05293 l 0,0 c 0.98983,-0.50826 1.77901,-0.81624 2.89031,-0.40978 1.71524,0.87016 2.97626,2.22597 3.39791,4.15377 0.18872,2.32505 -1.21527,3.96705 -3.50621,4.42746 -2.08726,0.0462 -4.42915,-0.39626 -5.06736,-2.67796 0.006,-2.53302 1.34695,-4.58299 3.25176,-6.19623 0,0 0.72289,0.96385 0.72289,0.96385 z"
     inkscape:connector-curvature="0" />
  <path
     style="stroke-width:0.1;stroke-miterlimit:4;stroke-dasharray:0.4, 0.4;stroke-dashoffset:0"
     id="path3076-1"
     d="m 412.13723,308.98302 c -1.53037,1.35454 -2.86742,3.08491 -2.77001,5.21141 0.63419,1.39792 2.46069,1.56344 3.8213,1.49482 1.48202,-0.36136 2.64193,-1.49448 2.35111,-3.08214 -0.36636,-1.4972 -1.37389,-2.56617 -2.73481,-3.21467 -0.72402,-0.2212 -1.17164,0.005 -1.7713,0.38241 0,0 -0.58559,-1.05294 -0.58559,-1.05294 l 0,0 c 0.98983,-0.50825 1.77901,-0.81624 2.89031,-0.40977 1.71524,0.87015 2.97626,2.22596 3.39791,4.15376 0.18872,2.32505 -1.21527,3.96705 -3.50621,4.42746 -2.08726,0.0462 -4.42915,-0.39626 -5.06736,-2.67796 0.006,-2.53302 1.34695,-4.58299 3.25176,-6.19623 0,0 0.72289,0.96385 0.72289,0.96385 z"
     inkscape:connector-curvature="0" />
  <rect
     style="fill:#ffffff;stroke-width:0.1;stroke-miterlimit:4;stroke-dasharray:0.4, 0.4;stroke-dashoffset:0"
     id="rect3119"
     width="33.73494"
     height="48.192772"
     x="389.15662"
     y="284.33734" />
  <path
     style="stroke-width:0.1;stroke-miterlimit:4;stroke-dasharray:0.4, 0.4;stroke-dashoffset:0"
     id="path3076-20"
     d="m 405.58301,302.57338 c -1.53037,1.35454 -2.86742,3.08491 -2.77001,5.21141 0.63419,1.39792 2.46069,1.56344 3.8213,1.49482 1.48202,-0.36136 2.64193,-1.49448 2.35111,-3.08214 -0.36636,-1.4972 -1.37389,-2.56617 -2.73481,-3.21468 -0.72402,-0.22119 -1.17164,0.005 -1.7713,0.38242 0,0 -0.58559,-1.05294 -0.58559,-1.05294 l 0,0 c 0.98983,-0.50826 1.77901,-0.81624 2.89031,-0.40977 1.71524,0.87015 2.97626,2.22596 3.39791,4.15376 0.18872,2.32505 -1.21527,3.96705 -3.50621,4.42746 -2.08726,0.0462 -4.42915,-0.39626 -5.06736,-2.67796 0.006,-2.53302 1.34695,-4.58299 3.25176,-6.19623 0,0 0.72289,0.96385 0.72289,0.96385 z"
     inkscape:connector-curvature="0" />
  <path
     style="fill:#ffffff;stroke-width:0.1;stroke-miterlimit:4;stroke-dasharray:0.4, 0.4;stroke-dashoffset:0"
     id="path3139"
     d="m 400.6024,273.00974 c 0,2.79599 0,5.59198 0,8.38797 0.22472,2.70233 -0.31037,5.32656 -0.73328,7.97471 -0.19337,1.47961 -0.10794,0.73796 -0.25617,2.22496 0,0 -1.19885,-0.11981 -1.19885,-0.11981 l 0,0 c 0.15377,-1.53485 0.0653,-0.76978 0.26529,-2.29523 0.41337,-2.58615 0.94405,-5.1448 0.71819,-7.78463 0,-2.79599 0,-5.59198 0,-8.38797 0,0 1.20482,0 1.20482,0 z"
     inkscape:connector-curvature="0" />
  <path
     style="fill:#000000;stroke-width:0.1;stroke-miterlimit:4;stroke-dasharray:0.4, 0.4;stroke-dashoffset:0"
     id="path3157"
     d="m 399.39758,273.00974 c 0,3.36781 0,6.73562 0,10.10342 0,3.07322 0,6.14643 0,9.21965 -0.0309,1.21253 -0.0244,2.40007 0.13901,3.60077 0,0 -1.1946,0.15653 -1.1946,0.15653 l 0,0 c -0.15884,-1.25398 -0.19252,-2.49195 -0.14923,-3.7573 0,-3.07322 0,-6.14643 0,-9.21965 0,-3.3678 0,-6.73561 0,-10.10342 0,0 1.20482,0 1.20482,0 z"
     inkscape:connector-curvature="0" />
  <path
     style="fill:#000000;stroke-width:0.1;stroke-miterlimit:4;stroke-dasharray:0.4, 0.4;stroke-dashoffset:0"
     id="path3159"
     d="m 394.19092,272.5797 c 2.24496,-1.99612 4.66139,-3.62623 7.46301,-4.71502 2.33634,-0.84715 4.72019,-0.87167 7.07168,-0.12423 1.94963,0.99207 2.93806,2.50281 3.50741,4.55803 0.4308,2.28294 0.65237,4.59156 -0.0713,6.82181 -0.77069,2.38063 -2.47125,3.90587 -4.68602,4.91851 -2.28998,0.75306 -4.75147,1.03151 -7.14701,0.77953 0,0 0.13339,-1.19741 0.13339,-1.19741 l 0,0 c 2.1759,0.25848 4.42978,-0.0396 6.51913,-0.68079 1.92025,-0.84815 3.3773,-2.15083 4.03856,-4.20395 0.69637,-1.981 0.38827,-4.08494 0.0505,-6.12202 -0.44288,-1.67132 -1.17031,-2.86176 -2.72007,-3.72887 -2.0708,-0.70526 -4.19957,-0.62255 -6.26204,0.10323 -2.70405,1.03826 -5.00807,2.63929 -7.17437,4.55503 0,0 -0.72289,-0.96385 -0.72289,-0.96385 z"
     inkscape:connector-curvature="0" />
  <path
     style="fill:#000000;stroke-width:0.1;stroke-miterlimit:4;stroke-dasharray:0.4, 0.4;stroke-dashoffset:0"
     id="path3248"
     d="m 334.45552,239.20465 c 2.74795,0 5.4959,0 8.24384,0 2.56009,0 5.12017,0 7.68026,0 2.69468,-0.16005 5.33759,0.43726 8.00088,0.75866 4.15284,0.41631 8.33019,0.43545 12.49845,0.47729 4.32978,0.0305 8.65969,0.0265 12.98955,0.0233 3.2934,-0.003 6.5868,-0.005 9.8802,-0.006 3.64489,-7.7e-4 7.28977,-7.3e-4 10.93466,-7.5e-4 3.31533,10e-6 6.63066,4e-5 9.94598,5e-5 3.36242,1e-5 6.72483,1e-5 10.08725,2e-5 3.58157,-0.34761 7.15018,-0.78669 10.74152,-1.02427 3.65476,-0.214 7.31685,-0.21848 10.9762,-0.23347 2.88517,-0.11133 5.79504,0.19869 8.66681,-0.14461 2.65835,-0.52247 5.3463,-0.79269 8.04407,-0.96084 2.56675,-0.13528 5.1374,-0.14361 7.70677,-0.15014 2.61838,0.0948 3.69191,1.82333 4.22097,4.25874 0.36265,2.69094 0.285,5.42185 0.2748,8.13224 -0.0192,2.79786 -0.0332,5.59573 -0.0402,8.39365 -0.0593,2.9655 -0.054,5.90111 0.33096,8.84158 0.47469,3.27897 0.6712,6.58642 0.7891,9.89662 0.41762,2.9871 0.84393,5.96313 1.07162,8.97422 0.19366,3.04617 0.20509,6.10079 0.21844,9.15234 0.005,3.47775 -3.3e-4,6.9555 -0.003,10.43324 0.29807,3.19304 0.73284,6.36768 0.98094,9.56634 0.18526,2.64341 0.21004,5.29461 0.22512,7.94372 0.007,2.80616 0.001,5.61233 -10e-4,8.41848 0.0459,2.67255 0.0595,5.31064 -0.35451,7.95168 -0.45791,2.45944 -0.66205,4.95284 -0.77683,7.4513 -0.0738,2.54453 -0.66575,5.03292 -0.96334,7.55676 -0.31643,2.41264 0.0202,4.8783 -0.85109,7.17109 -1.16192,1.84192 -3.42036,1.39445 -5.26346,1.33855 -2.57848,-0.10229 -5.15809,-0.16082 -7.73816,-0.19415 -3.13046,-0.0284 -6.26108,-0.0263 -9.39163,-0.0271 -3.51028,-0.0507 -6.99676,-0.0641 -10.48565,0.35385 -3.71694,0.47852 -7.45714,0.69284 -11.1983,0.81915 -3.31573,0.0917 -6.63298,0.0891 -9.94962,0.0902 -3.37666,-0.002 -6.75332,-0.005 -10.12998,-0.007 -3.0752,-0.002 -6.1504,-0.002 -9.22561,-0.002 -3.47248,-7e-5 -6.94496,-3e-5 -10.41744,-10e-6 -3.08551,2e-5 -6.17102,3e-5 -9.25652,3e-5 -2.7742,0 -5.54839,0 -8.32258,0 -2.68183,0 -5.36365,0 -8.04548,0 -3.30835,0 -6.61669,0 -9.92504,0 -2.73657,0 -5.47313,0 -8.2097,0 -2.41627,0 -4.83254,0 -7.24882,0 -2.53941,0.21261 -4.21491,-0.6854 -5.14657,-3.14019 -0.58032,-2.3557 -0.52339,-4.81298 -0.52765,-7.22677 0.0138,-2.77184 0.0311,-5.54365 0.0407,-8.31551 0.008,-2.66838 0.009,-5.33678 0.0102,-8.00517 3.8e-4,-2.51277 1.2e-4,-5.02554 1e-5,-7.53831 -1.1e-4,-2.50299 -1.4e-4,-5.00599 -1.6e-4,-7.50898 -1e-5,-2.50481 -1e-5,-5.00962 -1e-5,-7.51442 0,-2.50508 0,-5.01015 0,-7.51522 0,-2.50506 0,-5.01012 0,-7.51518 0,-2.50506 0,-5.01012 0,-7.51517 0,-2.50506 0,-5.01012 0,-7.51518 0,-2.50505 0,-5.01011 0,-7.51516 0,-2.75655 0,-5.5131 0,-8.26965 0,-2.66554 0,-5.33108 0,-7.99661 0.0484,-2.50122 0.059,-4.96637 -0.33498,-7.43639 -0.46751,-2.50203 -0.67398,-5.03935 -0.79121,-7.58133 -0.0863,-2.05706 -0.2616,-4.06311 0.4426,-6.01526 0,0 1.12071,0.45979 1.12071,0.45979 l 0,0 c -0.70931,1.74688 -0.3692,3.64323 -0.35987,5.49562 0.11448,2.49365 0.31672,4.98264 0.77645,7.43692 0.40238,2.53823 0.40495,5.07106 0.35112,7.64065 0,2.66553 0,5.33107 0,7.99661 0,2.75655 0,5.5131 0,8.26965 0,2.50505 0,5.01011 0,7.51516 0,2.50506 0,5.01012 0,7.51518 0,2.50505 0,5.01011 0,7.51517 0,2.50506 0,5.01012 0,7.51519 0,2.50506 0,5.01013 0,7.51521 0,2.5048 0,5.00961 10e-6,7.51441 2e-5,2.50298 5e-5,5.00596 1.6e-4,7.50894 1.1e-4,2.5129 3.7e-4,5.02581 -10e-6,7.53873 -7.3e-4,2.66978 -0.002,5.33956 -0.0102,8.00934 -0.01,2.7696 -0.0269,5.53914 -0.0407,8.30872 0.004,2.26437 -0.0507,4.5669 0.4495,6.78524 0.69289,2.01024 1.9812,2.50377 4.0199,2.33145 2.41628,0 4.83255,0 7.24882,0 2.73657,0 5.47313,0 8.2097,0 3.30835,0 6.61669,0 9.92504,0 2.68183,0 5.36365,0 8.04548,0 2.77419,0 5.54838,0 8.32257,0 3.08551,0 6.17102,-2e-5 9.25653,-4e-5 3.47249,-2e-5 6.94499,-6e-5 10.41749,10e-6 3.07541,1.2e-4 6.15082,1.8e-4 9.22623,0.002 3.3763,0.002 6.75261,0.005 10.12892,0.007 3.30374,-0.001 6.60809,10e-4 9.91093,-0.0896 3.70819,-0.12499 7.41546,-0.33707 11.09962,-0.81161 3.53495,-0.42241 7.06734,-0.41566 10.62372,-0.36206 3.13544,8.4e-4 6.27095,-10e-4 9.40629,0.0272 2.58682,0.0335 5.17319,0.0921 7.75842,0.19459 1.25237,0.0381 3.17134,0.48949 4.11469,-0.5648 0.90133,-2.13946 0.36539,-4.5829 0.76879,-6.84551 0.29496,-2.49307 0.87704,-4.95157 0.95574,-7.46398 0.11749,-2.54602 0.32573,-5.08701 0.79123,-7.59346 0.40595,-2.57389 0.37892,-5.14562 0.33873,-7.75085 0.003,-2.80329 0.008,-5.60658 10e-4,-8.40986 -0.0149,-2.61803 -0.0388,-5.23812 -0.22125,-7.85056 -0.25024,-3.23248 -0.69894,-6.43961 -0.98483,-9.66793 0.003,-3.4755 0.009,-6.95102 0.003,-10.42652 -0.0132,-3.02075 -0.0241,-6.04455 -0.21475,-9.06002 -0.22835,-3.02858 -0.6686,-6.01968 -1.07449,-9.02595 -0.1162,-3.26932 -0.30957,-6.53595 -0.77898,-9.77437 -0.3907,-2.99775 -0.40483,-5.99051 -0.34191,-9.01339 0.007,-2.79846 0.0211,-5.59688 0.0403,-8.39529 0.01,-2.6189 0.0835,-5.25632 -0.24673,-7.85849 -0.38299,-1.87317 -0.98967,-3.19473 -3.04129,-3.27505 -2.54634,0.006 -5.09395,0.0144 -7.63771,0.1479 -2.67733,0.16636 -5.34385,0.4382 -7.98218,0.95531 -2.91774,0.33056 -5.86545,0.0597 -8.79595,0.15237 -3.63544,0.0149 -7.27359,0.019 -10.9045,0.23095 -3.61684,0.23891 -7.2099,0.68963 -10.81797,1.02679 -3.36242,0 -6.72484,0 -10.08725,-10e-6 -3.31533,-2e-5 -6.63065,-5e-5 -9.94597,-5e-5 -3.64478,2e-5 -7.28956,-2e-5 -10.93433,7.5e-4 -3.29323,9.6e-4 -6.58645,0.003 -9.87967,0.006 -4.33403,0.003 -8.66811,0.007 -13.00206,-0.0234 -4.21083,-0.0423 -8.43085,-0.0625 -12.62592,-0.48561 -2.61752,-0.3167 -5.21364,-0.90764 -7.86177,-0.75028 -2.56009,0 -5.12017,0 -7.68026,0 -2.74794,0 -5.49589,0 -8.24384,0 0,0 0,-1.25253 0,-1.25253 z"
     inkscape:connector-curvature="0" />
  <path
     style="fill:#000000;stroke-width:0.1;stroke-miterlimit:4;stroke-dasharray:0.4, 0.4;stroke-dashoffset:0"
     id="path3250"
     d="m 315.93374,300.94432 c -1.36198,2.22534 -2.25981,4.62144 -2.80736,7.16125 -0.16534,1.34544 0.14982,3.82896 2.02439,3.08183 1.4617,-1.23693 2.17329,-3.21367 2.89336,-4.9496 1.40221,-2.59869 1.85794,0.89354 2.28127,1.7692 1.02253,1.66994 2.65654,2.95662 4.65979,2.44207 2.19381,-1.06541 2.49553,-3.05594 2.53319,-5.2609 -0.097,-0.97602 -0.37855,-1.85768 -0.80178,-2.7317 0,0 1.09087,-0.51146 1.09087,-0.51146 l 0,0 c 0.48151,1.05407 0.83551,2.09459 0.9155,3.26687 -0.0615,2.79107 -0.68968,5.23218 -3.50247,6.41881 -0.45585,0.0739 -0.90587,0.23261 -1.36754,0.22166 -2.00397,-0.0475 -3.64942,-1.7759 -4.62018,-3.33764 -0.0969,-0.21499 -0.8295,-1.99818 -0.62795,-2.10121 0.20792,-0.10629 0.46973,0.0689 0.69991,0.0296 0.0599,-0.0102 0.11212,-0.21572 0.0818,-0.16305 -0.0796,0.13806 -0.153,0.27958 -0.2295,0.41937 -0.85645,2.06472 -1.71933,4.44071 -3.70337,5.65411 -3.1025,0.60512 -3.71878,-1.91819 -3.50473,-4.50317 0.56651,-2.60082 1.45985,-5.07738 2.86619,-7.3535 0,0 1.11865,0.44746 1.11865,0.44746 z"
     inkscape:connector-curvature="0" />
  <path
     style="fill:#000000;stroke-width:0.1;stroke-miterlimit:4;stroke-dasharray:0.4, 0.4;stroke-dashoffset:0"
     id="path3252"
     d="m 404.21686,224.81698 c 0,2.65187 0,5.30374 0,7.95561 -0.8491,-0.84581 0.2863,0.98443 0,0.89755 -0.42817,-0.12993 -0.94729,-0.226 -1.20482,-0.59192 -0.28287,-0.40193 0.5984,-2.60437 0.72008,-2.97697 0.98381,-2.25492 2.09386,-4.47792 3.90859,-6.17145 2.17577,-1.47244 3.5374,0.45025 4.2827,2.36055 0.4461,1.95712 1.09241,3.85095 1.75374,5.74245 0,0 -1.1373,0.39764 -1.1373,0.39764 l 0,0 c -0.65756,-1.88072 -1.30851,-3.763 -1.74239,-5.71135 -0.39147,-1.06 -0.97462,-2.7438 -2.34195,-1.90177 -1.68997,1.52063 -2.64301,3.62525 -3.57928,5.66157 -0.5227,1.56477 -0.0912,2.65324 -1.86419,3.19125 -0.28629,0.0869 0.8491,-1.74336 0,-0.89755 0,-2.65187 0,-5.30374 0,-7.95561 0,0 1.20482,0 1.20482,0 z"
     inkscape:connector-curvature="0" />
  <path
     style="fill:#000000;stroke-width:0.1;stroke-miterlimit:4;stroke-dasharray:0.4, 0.4;stroke-dashoffset:0"
     id="path3254"
     d="m 484.93979,304.08445 c 2.06507,-0.68562 4.15952,-1.44204 5.74963,-2.97238 1.18375,-1.43214 0.60912,-2.49125 -0.85429,-3.29161 -1.71286,-0.72486 -3.4945,-0.18464 -4.78547,1.07361 -1.05583,1.61693 -1.44613,3.6913 -1.0348,5.56676 1.10416,2.8225 2.80634,3.67376 5.73776,3.63076 0.55246,-0.0581 1.10493,-0.11628 1.65739,-0.17441 0,0 0.12393,1.19842 0.12393,1.19842 l 0,0 c -0.59256,0.0603 -1.18512,0.12054 -1.77768,0.1808 -3.55593,-0.0238 -5.66299,-1.17011 -6.92405,-4.60554 -0.40774,-2.31656 -0.0328,-4.75134 1.39649,-6.67861 1.74528,-1.57126 3.97848,-2.23724 6.21118,-1.23384 2.1116,1.27743 2.80655,3.18969 1.0755,5.2108 -1.78746,1.65367 -4.03095,2.5654 -6.33931,3.27667 0,0 -0.23628,-1.18143 -0.23628,-1.18143 z"
     inkscape:connector-curvature="0" />
  <path
     style="fill:#000000;stroke-width:0.1;stroke-miterlimit:4;stroke-dasharray:0.4, 0.4;stroke-dashoffset:0"
     id="path3256"
     d="m 407.13469,368.97089 c -2.89163,-0.60499 -5.80562,-0.36528 -8.15936,1.51436 -1.13784,1.36478 -10e-4,1.72827 1.25242,2.06369 2.16739,0.22776 4.24091,0.56751 6.14456,1.67089 1.91819,1.57227 2.59617,3.64639 1.48166,5.87926 -1.99859,2.25338 -5.22823,2.19058 -8.00421,2.01874 -1.54795,-0.11247 -2.76665,-0.73165 -4.02854,-1.55983 0,0 0.67181,-1.00013 0.67181,-1.00013 l 0,0 c 1.06626,0.73694 2.10368,1.25242 3.43261,1.35753 2.29363,0.14767 5.06595,0.29946 6.86588,-1.38445 0.93266,-1.57714 0.28733,-3.10856 -1.03295,-4.27434 -1.79068,-1.08788 -3.81734,-1.27271 -5.85756,-1.548 -2.37267,-0.69504 -3.5621,-1.95896 -1.66637,-4.1736 2.69442,-2.0594 5.90721,-2.44535 9.19226,-1.73296 0,0 -0.29221,1.16884 -0.29221,1.16884 z"
     inkscape:connector-curvature="0" />
  <path
     style="fill:none;stroke:#000000;stroke-width:1.01851285;stroke-linecap:butt;stroke-linejoin:miter;stroke-miterlimit:4;stroke-opacity:1;stroke-dasharray:8.14810246, 8.14810246;stroke-dashoffset:0"
     d="m 332.21497,238.55422 c -1.66646,0.40161 -3.31499,0.88008 -4.99937,1.20482 -1.38957,0.2679 -3.53868,0 -4.99937,0 -3.33291,0 -6.66582,0 -9.99873,0 -4.16614,0 -8.33228,0 -12.49842,0 -0.65356,0 -4.67073,0.1584 -4.99936,0 -0.52698,-0.254 -0.72287,-0.95082 -1.24984,-1.20482 -0.28013,-0.13502 -4.70237,0 -4.99937,0 -4.58275,0 -9.1655,0 -13.74825,0 -14.9981,0 -29.99619,0 -44.99429,0 -5.83259,0 -11.66518,0 -17.49778,0 -0.83323,0 -1.66646,0 -2.49968,0 -0.41662,0 -0.95525,0.28398 -1.24984,0 -0.29459,-0.28398 0.29459,-0.92084 0,-1.20482 -0.29459,-0.28398 -0.83324,0 -1.24984,0 -2.49969,0 -4.99937,0 -7.49906,0 -0.4166,0 -0.83322,0 -1.24984,0 -0.41661,0 -1.24984,0.40161 -1.24984,0 0,-1.77277 4.14521,2.79107 0,-1.20482 -1.42852,4.47434 -1.24984,8.73363 -1.24984,13.25302 0,0.80321 0,1.60642 0,2.40963 0,0.80322 -0.26348,1.64765 0,2.40964 0.18632,0.53881 0.98636,0.69682 1.24984,1.20482 0.226,0.4357 0,5.1861 0,6.0241 0,8.03213 0,16.06426 0,24.09638 0,2.40964 0,4.81928 0,7.22892 0,1.20482 0.39524,2.47147 0,3.61446 -0.18631,0.53881 -1.06352,0.66601 -1.24984,1.20482 -0.24375,0.70491 0,6.19478 0,7.22891 0,0.80322 0.26349,1.64765 0,2.40964 -0.18631,0.53881 -1.06352,0.66601 -1.24983,1.20482 -0.19073,0.55152 0,5.35162 0,6.0241 0,4.01606 0,8.03213 0,12.04819 0,0.64363 0.17885,5.67927 0,6.0241 -0.2635,0.50799 -0.98637,0.69682 -1.24985,1.20482 -0.226,0.4357 0,5.18609 0,6.02409 0,4.81928 0,9.63856 0,14.45783 0,2.81125 0,5.62249 0,8.43374 0,1.20482 0,2.40964 0,3.61446 0,0.4016 0.41661,1.20482 0,1.20482 -0.41661,0 0,-0.80322 0,-1.20482 2.08307,-0.80321 4.1208,-1.72573 6.2492,-2.40964 0.76252,-0.24502 6.53376,0 7.49906,0 4.99936,0 9.99872,0 14.99809,0 2.08307,0 4.20659,0.39381 6.24921,0 0.91349,-0.17612 1.58619,-1.02871 2.49968,-1.20482 1.22557,-0.23629 2.49968,0 3.74952,0 3.74953,0 7.49905,0 11.24858,0 5.41598,0 10.83195,0 16.24794,0 1.29974,0 6.5159,-0.23693 7.49904,0 0.90377,0.2178 1.61591,0.92084 2.49968,1.20482 1.32811,0.42675 3.67127,-0.42675 4.99937,0 0.88377,0.28398 1.59592,0.98702 2.49969,1.20482 1.61669,0.38961 3.36526,-0.31505 4.99936,0 1.29186,0.24906 2.45766,0.95575 3.74952,1.20482 0.81705,0.15752 1.66646,0 2.49969,0 2.08306,0 4.16613,0 6.24921,0 5.41597,0 10.83195,0 16.24793,0 5.41598,0 10.83196,0 16.24794,0 0.41661,0 0.83323,0 1.24984,0 0.41661,0 0.95525,0.28398 1.24985,0 0.29458,-0.28398 -0.2946,-0.92084 0,-1.20482 0.30074,-0.28992 4.69861,0.28991 4.99935,0 0.2946,-0.28398 -0.29459,-0.92084 0,-1.20482 0.62492,-0.60241 3.12461,0.60241 3.74953,0 0.29459,-0.28398 0,-0.80322 0,-1.20482"
     id="path4586"
     inkscape:connector-curvature="0" />
  <path
     style="stroke-width:0.1;stroke-miterlimit:4;stroke-dasharray:0.4, 0.4;stroke-dashoffset:0"
     id="path3072-4"
     d="m 102.77203,293.07825 c 0,3.71987 0,7.43975 0,11.15961 -0.0747,3.0784 0.56042,6.07129 0.86755,9.10426 0.43207,2.29031 0.92179,4.53994 1.78958,6.60276 0.066,0.0108 0.14799,0.0937 0.19786,0.0341 0.0945,-0.11277 -0.0364,-0.34928 0.002,-0.51156 0.2214,-0.92838 0.60815,-1.78444 0.90664,-2.67048 0.69595,-2.76032 1.21593,-5.59902 1.89499,-8.3678 0.53559,-1.56961 0.64221,-5.79207 2.48152,-5.85068 0.31254,-0.009 0.59444,0.26244 0.89166,0.39365 1.69947,1.56897 2.74961,4.09362 4.00588,6.2421 1.12284,2.32154 2.2313,4.64111 3.41502,6.9086 1.40439,2.17037 1.07889,1.20791 1.34777,-0.6732 0.32672,-3.49068 0.28898,-7.02133 0.29594,-10.53333 -4e-4,-3.43812 -0.01,-6.87622 -0.0157,-10.31434 0,0 1.20482,-0.004 1.20482,-0.004 l 0,0 c 0.006,3.44089 0.0153,6.88177 0.0157,10.32268 -0.007,3.62066 0.0326,7.26195 -0.32079,10.85844 -0.56069,3.50641 -1.78091,4.17615 -3.51198,1.28436 -1.16979,-2.24514 -2.27343,-4.53475 -3.37629,-6.83843 -1.14629,-1.96892 -2.11675,-4.25709 -3.6005,-5.79506 -0.54962,-1.89435 -1.53751,4.27294 -1.68998,4.51455 -0.69677,2.82197 -1.21224,5.72411 -1.94232,8.53051 -0.6104,1.80317 -1.44137,5.34976 -3.25217,3.27056 -0.92843,-2.24955 -1.49107,-4.68327 -1.93368,-7.18251 -0.31316,-3.10611 -0.9641,-6.17069 -0.87867,-9.3253 0,-3.71987 0,-7.43974 0,-11.15962 0,0 1.20482,0 1.20482,0 z"
     inkscape:connector-curvature="0" />
  <path
     style="stroke-width:0.1;stroke-miterlimit:4;stroke-dasharray:0.4, 0.4;stroke-dashoffset:0"
     id="path3076-2-6"
     d="m 137.19842,305.77438 c -1.53037,1.35454 -2.86742,3.0849 -2.77001,5.2114 0.63419,1.39793 2.46069,1.56345 3.8213,1.49483 1.48202,-0.36136 2.64193,-1.49448 2.35111,-3.08214 -0.36636,-1.4972 -1.37389,-2.56618 -2.73481,-3.21468 -0.72402,-0.2212 -1.17164,0.005 -1.7713,0.38241 0,0 -0.58559,-1.05294 -0.58559,-1.05294 l 0,0 c 0.98983,-0.50825 1.77901,-0.81624 2.89031,-0.40977 1.71524,0.87016 2.97626,2.22596 3.39791,4.15377 0.18872,2.32504 -1.21527,3.96704 -3.50621,4.42746 -2.08726,0.0462 -4.42915,-0.39627 -5.06736,-2.67797 0.006,-2.53301 1.34695,-4.58299 3.25176,-6.19623 0,0 0.72289,0.96386 0.72289,0.96386 z"
     inkscape:connector-curvature="0" />
  <path
     style="stroke-width:0.1;stroke-miterlimit:4;stroke-dasharray:0.4, 0.4;stroke-dashoffset:0"
     id="path3072-4-9"
     d="m 76.497958,293.07825 c 0,3.71987 0,7.43975 0,11.15961 -0.0747,3.0784 0.56042,6.07129 0.86755,9.10426 0.43207,2.29031 0.92179,4.53995 1.78958,6.60277 0.066,0.0108 0.14799,0.0937 0.19786,0.0341 0.0945,-0.11277 -0.0364,-0.34928 0.002,-0.51156 0.2214,-0.92838 0.60815,-1.78444 0.90664,-2.67049 0.69595,-2.76032 1.21593,-5.59902 1.89499,-8.3678 0.53559,-1.56961 0.64221,-5.79207 2.48152,-5.85068 0.31254,-0.009 0.59444,0.26244 0.89166,0.39365 1.69947,1.56897 2.74961,4.09362 4.00588,6.2421 1.12284,2.32154 2.2313,4.64111 3.41502,6.9086 1.404386,2.17038 1.078886,1.20792 1.347766,-0.6732 0.32672,-3.49068 0.28898,-7.02133 0.29594,-10.53333 -4e-4,-3.43812 -0.01,-6.87622 -0.0157,-10.31434 0,0 1.204819,-0.004 1.204819,-0.004 l 0,0 c 0.006,3.44089 0.0153,6.88177 0.0157,10.32268 -0.007,3.62066 0.0326,7.26195 -0.32079,10.85844 -0.560689,3.50642 -1.780905,4.17616 -3.511975,1.28437 -1.16979,-2.24515 -2.27343,-4.53476 -3.37629,-6.83844 -1.14629,-1.96892 -2.11675,-4.25709 -3.6005,-5.79506 -0.54962,-1.89435 -1.53751,4.27294 -1.68998,4.51455 -0.69677,2.82197 -1.21224,5.72411 -1.94232,8.53052 -0.6104,1.80317 -1.44137,5.34976 -3.25217,3.27056 -0.92843,-2.24955 -1.49107,-4.68328 -1.93368,-7.18252 -0.31316,-3.10611 -0.9641,-6.17069 -0.87867,-9.3253 0,-3.71987 0,-7.43974 0,-11.15962 0,0 1.20482,0 1.20482,0 z"
     inkscape:connector-curvature="0" />
  <path
     style="fill:none;stroke:#000000;stroke-width:1.01851285;stroke-linecap:butt;stroke-linejoin:miter;stroke-miterlimit:4;stroke-opacity:1;stroke-dasharray:8.14810246, 8.14810246;stroke-dashoffset:0"
     d="m 479.55943,239.15663 c 1.66646,0.40161 3.31499,0.88008 4.99937,1.20482 1.38957,0.2679 3.53868,0 4.99937,0 3.33291,0 6.66582,0 9.99873,0 4.16614,0 8.33228,0 12.49842,0 0.65356,0 4.67073,0.1584 4.99936,0 0.52698,-0.254 0.72287,-0.95082 1.24984,-1.20482 0.28013,-0.13502 4.70237,0 4.99937,0 4.58275,0 9.1655,0 13.74825,0 14.9981,0 29.99619,0 44.99429,0 5.83259,0 11.66518,0 17.49778,0 0.83323,0 1.66646,0 2.49968,0 0.41662,0 0.95525,0.28398 1.24984,0 0.29459,-0.28398 -0.29459,-0.92084 0,-1.20482 0.29459,-0.28398 0.83324,0 1.24984,0 2.49969,0 4.99937,0 7.49906,0 0.4166,0 0.83322,0 1.24984,0 0.41661,0 1.24984,0.40161 1.24984,0 0,-1.77278 -4.14521,2.79106 0,-1.20482 1.42852,4.47434 1.24984,8.73363 1.24984,13.25301 0,0.80322 0,1.60643 0,2.40964 0,0.80322 0.26348,1.64765 0,2.40964 -0.18632,0.53881 -0.98636,0.69682 -1.24984,1.20482 -0.226,0.4357 0,5.1861 0,6.0241 0,8.03213 0,16.06426 0,24.09638 0,2.40964 0,4.81928 0,7.22892 0,1.20482 -0.39524,2.47147 0,3.61446 0.18631,0.53881 1.06352,0.66601 1.24984,1.20482 0.24375,0.70491 0,6.19478 0,7.22891 0,0.80322 -0.26349,1.64765 0,2.40964 0.18631,0.53881 1.06352,0.66601 1.24983,1.20482 0.19073,0.55152 0,5.35162 0,6.0241 0,4.01606 0,8.03213 0,12.04819 0,0.64363 -0.17885,5.67927 0,6.0241 0.2635,0.50799 0.98637,0.69682 1.24985,1.20482 0.226,0.4357 0,5.18609 0,6.02409 0,4.81928 0,9.63856 0,14.45783 0,2.81125 0,5.62249 0,8.43374 0,1.20482 0,2.40964 0,3.61446 0,0.4016 -0.41661,1.20482 0,1.20482 0.41661,0 0,-0.80322 0,-1.20482 -2.08307,-0.80321 -4.1208,-1.72573 -6.2492,-2.40964 -0.76252,-0.24502 -6.53376,0 -7.49906,0 -4.99936,0 -9.99872,0 -14.99809,0 -2.08307,0 -4.20659,0.39381 -6.24921,0 -0.91349,-0.17612 -1.58619,-1.02871 -2.49968,-1.20482 -1.22557,-0.23629 -2.49968,0 -3.74952,0 -3.74953,0 -7.49905,0 -11.24858,0 -5.41598,0 -10.83195,0 -16.24794,0 -1.29974,0 -6.5159,-0.23693 -7.49904,0 -0.90377,0.2178 -1.61591,0.92084 -2.49968,1.20482 -1.32811,0.42675 -3.67127,-0.42675 -4.99937,0 -0.88377,0.28398 -1.59592,0.98702 -2.49969,1.20482 -1.61669,0.38961 -3.36526,-0.31505 -4.99936,0 -1.29186,0.24906 -2.45766,0.95575 -3.74952,1.20482 -0.81705,0.15752 -1.66646,0 -2.49969,0 -2.08306,0 -4.16613,0 -6.24921,0 -5.41597,0 -10.83195,0 -16.24793,0 -5.41598,0 -10.83196,0 -16.24794,0 -0.41661,0 -0.83323,0 -1.24984,0 -0.41661,0 -0.95525,0.28398 -1.24985,0 -0.29458,-0.28398 0.2946,-0.92084 0,-1.20482 -0.30074,-0.28992 -4.69861,0.28991 -4.99935,0 -0.2946,-0.28398 0.29459,-0.92084 0,-1.20482 -0.62492,-0.60241 -3.12461,0.60241 -3.74953,0 -0.29459,-0.28398 0,-0.80322 0,-1.20482"
     id="path4586-2"
     inkscape:connector-curvature="0" />
  <path
     style="stroke-width:0.1;stroke-miterlimit:4;stroke-dasharray:0.4, 0.4;stroke-dashoffset:0"
     id="path3064-8"
     d="m 694.52485,289.90813 c 0,2.74795 0,5.4959 0,8.24384 0,2.56009 0,5.12017 0,7.68026 -0.10527,1.77892 0.14381,3.57589 2.15459,3.87666 2.22515,0.11154 4.33816,-0.69976 6.4859,-1.16683 1.64439,-0.28652 0.82042,-0.16041 2.47188,-0.37851 0,0 0.15725,1.19451 0.15725,1.19451 l 0,0 c -1.58582,0.20808 -0.79467,0.0877 -2.37342,0.36137 -2.31293,0.50164 -4.59031,1.38295 -6.99239,1.16789 -2.52926,-0.63717 -3.28001,-2.56002 -3.10863,-5.05509 0,-2.56009 0,-5.12017 0,-7.68026 0,-2.74794 0,-5.49589 0,-8.24384 0,0 1.20482,0 1.20482,0 z"
     inkscape:connector-curvature="0" />
  <path
     style="stroke-width:0.1;stroke-miterlimit:4;stroke-dasharray:0.4, 0.4;stroke-dashoffset:0"
     id="path3066-6"
     d="m 692.11525,299.29609 c 2.74766,-0.5288 5.53688,-0.77065 8.32643,-0.9358 1.80902,-0.0769 0.91134,-0.0449 2.693,-0.0965 0,0 0.0349,1.20431 0.0349,1.20431 l 0,0 c -1.75874,0.0508 -0.87315,0.0194 -2.65674,0.0949 -2.73412,0.16142 -5.46802,0.39725 -8.16126,0.9145 0,0 -0.23628,-1.18142 -0.23628,-1.18142 z"
     inkscape:connector-curvature="0" />
  <path
     style="stroke-width:0.1;stroke-miterlimit:4;stroke-dasharray:0.4, 0.4;stroke-dashoffset:0"
     id="path3068-8"
     d="m 692.00966,289.54481 c 3.53971,-1.09297 7.15427,-1.93675 10.79622,-2.60913 0.58467,-0.0886 1.16934,-0.17721 1.75401,-0.26581 0,0 0.18032,1.19125 0.18032,1.19125 l 0,0 c -0.57192,0.0865 -1.14384,0.17292 -1.71576,0.25939 -3.56432,0.65702 -7.09969,1.48555 -10.56733,2.54294 0,0 -0.44746,-1.11864 -0.44746,-1.11864 z"
     inkscape:connector-curvature="0" />
  <path
     style="stroke-width:0.1;stroke-miterlimit:4;stroke-dasharray:0.4, 0.4;stroke-dashoffset:0"
     id="path3076-8-6"
     d="m 676.49341,295.35129 c -1.53037,1.35454 -2.86742,3.0849 -2.77001,5.2114 0.63419,1.39793 2.46069,1.56345 3.8213,1.49483 1.48202,-0.36136 2.64193,-1.49448 2.35111,-3.08214 -0.36636,-1.4972 -1.37389,-2.56618 -2.73481,-3.21468 -0.72402,-0.2212 -1.17164,0.005 -1.7713,0.38241 0,0 -0.58559,-1.05294 -0.58559,-1.05294 l 0,0 c 0.98983,-0.50825 1.77901,-0.81624 2.89031,-0.40977 1.71524,0.87016 2.97626,2.22596 3.39791,4.15377 0.18872,2.32504 -1.21527,3.96704 -3.50621,4.42746 -2.08726,0.0462 -4.42915,-0.39627 -5.06736,-2.67797 0.006,-2.53301 1.34695,-4.58299 3.25176,-6.19623 0,0 0.72289,0.96386 0.72289,0.96386 z"
     inkscape:connector-curvature="0" />
  <path
     style="stroke-width:0.1;stroke-miterlimit:4;stroke-dasharray:0.4, 0.4;stroke-dashoffset:0"
     id="path3064-8-9"
     d="m 712.49025,289.90812 c 0,2.74795 0,5.4959 0,8.24384 0,2.56009 0,5.12017 0,7.68026 -0.10527,1.77892 0.14381,3.57589 2.15459,3.87666 2.22515,0.11154 4.33816,-0.69976 6.4859,-1.16683 1.64439,-0.28652 0.82042,-0.16041 2.47188,-0.37851 0,0 0.15725,1.19451 0.15725,1.19451 l 0,0 c -1.58582,0.20808 -0.79467,0.0877 -2.37342,0.36137 -2.31293,0.50164 -4.59031,1.38295 -6.99239,1.16789 -2.52926,-0.63717 -3.28001,-2.56002 -3.10863,-5.05509 0,-2.56009 0,-5.12017 0,-7.68026 0,-2.74794 0,-5.49589 0,-8.24384 0,0 1.20482,0 1.20482,0 z"
     inkscape:connector-curvature="0" />
  <path
     style="stroke-width:0.1;stroke-miterlimit:4;stroke-dasharray:0.4, 0.4;stroke-dashoffset:0"
     id="path3066-6-4"
     d="m 710.08065,299.29608 c 2.74766,-0.5288 5.53688,-0.77065 8.32643,-0.9358 1.80902,-0.0769 0.91134,-0.0449 2.693,-0.0965 0,0 0.0349,1.20431 0.0349,1.20431 l 0,0 c -1.75874,0.0508 -0.87315,0.0194 -2.65674,0.0949 -2.73412,0.16142 -5.46802,0.39725 -8.16126,0.9145 0,0 -0.23628,-1.18142 -0.23628,-1.18142 z"
     inkscape:connector-curvature="0" />
  <path
     style="stroke-width:0.1;stroke-miterlimit:4;stroke-dasharray:0.4, 0.4;stroke-dashoffset:0"
     id="path3068-8-7"
     d="m 709.97506,289.5448 c 3.53971,-1.09297 7.15427,-1.93675 10.79622,-2.60913 0.58467,-0.0886 1.16934,-0.17721 1.75401,-0.26581 0,0 0.18032,1.19125 0.18032,1.19125 l 0,0 c -0.57192,0.0865 -1.14384,0.17292 -1.71576,0.25939 -3.56432,0.65702 -7.09969,1.48555 -10.56733,2.54294 0,0 -0.44746,-1.11864 -0.44746,-1.11864 z"
     inkscape:connector-curvature="0" />
  <path
     style="fill:none;stroke:#000000;stroke-width:1.01488864;stroke-linecap:butt;stroke-linejoin:miter;stroke-miterlimit:4;stroke-opacity:1;stroke-dasharray:8.11910813, 8.11910813;stroke-dashoffset:0"
     d="m 338.1159,237.92404 c 0.42896,-1.54913 0.94001,-3.08159 1.28687,-4.64738 0.28614,-1.29173 0,-3.28953 0,-4.64738 0,-3.09824 0,-6.19649 0,-9.29474 0,-3.87281 0,-7.74562 0,-11.61844 0,-0.60754 0.16918,-4.34187 0,-4.64736 -0.2713,-0.48988 -1.01557,-0.67198 -1.28687,-1.16185 -0.14421,-0.2604 0,-4.37128 0,-4.64737 0,-4.26009 0,-8.52018 0,-12.78027 0,-13.94212 0,-27.88424 0,-41.82637 0,-5.42193 0,-10.84386 0,-16.2658 0,-0.77456 0,-1.54913 0,-2.32368 0,-0.38729 0.30332,-0.888 0,-1.16184 -0.30332,-0.27385 -0.98355,0.27384 -1.28686,0 -0.30332,-0.27385 0,-0.77458 0,-1.16185 0,-2.32369 0,-4.64737 0,-6.97107 0,-0.38726 0,-0.77455 0,-1.16184 0,-0.38728 0.42895,-1.16184 0,-1.16184 -1.89351,0 2.98112,3.85336 -1.28687,0 4.77903,-1.32794 9.32837,-1.16184 14.15551,-1.16184 0.85792,0 1.71583,0 2.57374,0 0.85791,0 1.75985,-0.24493 2.57373,0 0.5755,0.1732 0.74427,0.91691 1.28686,1.16184 0.46537,0.21009 5.53927,0 6.43433,0 8.5791,0 17.15821,0 25.7373,0 2.57373,0 5.14746,0 7.72119,0 1.28687,0 2.63977,0.36741 3.8606,0 0.5755,-0.17319 0.71136,-0.98864 1.28687,-1.16184 0.75291,-0.22659 6.61663,0 7.72118,0 0.85792,0 1.75985,0.24494 2.57373,0 0.5755,-0.17319 0.71137,-0.98864 1.28687,-1.16183 0.58907,-0.17731 5.71605,0 6.43433,0 4.28954,0 8.5791,0 12.86864,0 0.68746,0 6.06602,0.16625 6.43433,0 0.54259,-0.24495 0.74428,-0.91693 1.28687,-1.16185 0.46537,-0.21009 5.53925,0 6.43432,0 5.14746,0 10.29492,0 15.44238,0 3.00269,0 6.00537,0 9.00806,0 1.28686,0 2.57373,0 3.8606,0 0.42894,0 1.28686,0.38727 1.28686,0 0,-0.38728 -0.85792,0 -1.28686,0 -0.85791,1.9364 -1.84325,3.83066 -2.57374,5.8092 -0.2617,0.70884 0,6.07374 0,6.97107 0,4.64737 0,9.29474 0,13.94211 0,1.93641 0.42063,3.91042 0,5.80922 -0.18811,0.84918 -1.09876,1.47451 -1.28686,2.32369 -0.25238,1.13928 0,2.32368 0,3.48552 0,3.48554 0,6.97107 0,10.45661 0,5.03465 0,10.0693 0,15.10396 0,1.20823 -0.25307,6.05713 0,6.97105 0.23263,0.84014 0.98355,1.50214 1.28686,2.32369 0.45581,1.2346 -0.45581,3.41278 0,4.64737 0.30332,0.82155 1.05424,1.48356 1.28687,2.3237 0.41614,1.50286 -0.3365,3.12832 0,4.64736 0.26602,1.20091 1.02083,2.28462 1.28687,3.48553 0.16824,0.75952 0,1.54913 0,2.32369 0,1.9364 0,3.8728 0,5.80922 0,5.03464 0,10.0693 0,15.10395 0,5.03466 0,10.06931 0,15.10396 0,0.38728 0,0.77457 0,1.16185 0,0.38727 0.30331,0.88799 0,1.16185 -0.30332,0.27384 -0.98355,-0.27386 -1.28687,0 -0.30966,0.27956 0.30965,4.36779 0,4.64736 -0.30332,0.27385 -0.98355,-0.27385 -1.28687,0 -0.64343,0.58092 0.64344,2.90461 0,3.48553 -0.30331,0.27385 -0.85791,0 -1.28686,0"
     id="path4586-2-4"
     inkscape:connector-curvature="0" />
  <path
     style="fill:none;stroke:#000000;stroke-width:1.03250408;stroke-linecap:butt;stroke-linejoin:miter;stroke-miterlimit:4;stroke-opacity:1;stroke-dasharray:8.26003184, 8.26003184;stroke-dashoffset:0"
     d="m 473.19183,367.18279 c -0.42882,1.60389 -0.9397,3.19053 -1.28644,4.81167 -0.28605,1.3374 0,3.40583 0,4.81168 0,3.20778 0,6.41556 0,9.62334 0,4.00973 0,8.01945 0,12.02918 0,0.62902 -0.16914,4.49537 0,4.81167 0.2712,0.50719 1.01523,0.69573 1.28644,1.20291 0.14417,0.26962 0,4.52583 0,4.81168 0,4.4107 0,8.82139 0,13.23209 0,14.43502 0,28.87002 0,43.30505 0,5.61361 0,11.22723 0,16.84085 0,0.80195 0,1.60389 0,2.40583 0,0.40098 -0.30322,0.91939 0,1.20292 0.30322,0.28353 0.98323,-0.28353 1.28645,0 0.30322,0.28353 0,0.80195 0,1.20291 0,2.40585 0,4.81168 0,7.21752 0,0.40096 0,0.80194 0,1.20292 0,0.40097 -0.42882,1.20291 0,1.20291 1.89288,0 -2.98016,-3.98958 1.28644,0 -4.77747,1.37489 -9.32533,1.20292 -14.15089,1.20292 -0.85764,0 -1.71527,0 -2.57289,0 -0.85764,0 -1.75928,0.25359 -2.5729,0 -0.57531,-0.17932 -0.74403,-0.94933 -1.28644,-1.20292 -0.46522,-0.21751 -5.53746,0 -6.43223,0 -8.57631,0 -17.15261,0 -25.72891,0 -2.57289,0 -5.14578,0 -7.71867,0 -1.28645,0 -2.63891,-0.3804 -3.85934,0 -0.57531,0.17932 -0.71113,1.0236 -1.28645,1.20292 -0.75266,0.2346 -6.61447,0 -7.71866,0 -0.85764,0 -1.75928,-0.2536 -2.57289,0 -0.57532,0.17932 -0.71114,1.02359 -1.28645,1.20291 -0.58889,0.18357 -5.71419,0 -6.43223,0 -4.28815,0 -8.57631,0 -12.86445,0 -0.68724,0 -6.06404,-0.17214 -6.43223,0 -0.54241,0.25361 -0.74403,0.94934 -1.28645,1.20292 -0.46522,0.21752 -5.53746,0 -6.43223,0 -5.14578,0 -10.29157,0 -15.43734,0 -3.00171,0 -6.00341,0 -9.00513,0 -1.28644,0 -2.57289,0 -3.85933,0 -0.42881,0 -1.28645,-0.40096 -1.28645,0 0,0.40097 0.85764,0 1.28645,0 0.85762,-2.00486 1.84264,-3.96609 2.57289,-6.01458 0.26162,-0.73389 0,-6.28846 0,-7.21752 0,-4.81166 0,-9.62333 0,-14.435 0,-2.00487 -0.42049,-4.04866 0,-6.01459 0.18805,-0.8792 1.0984,-1.52664 1.28644,-2.40584 0.2523,-1.17956 0,-2.40583 0,-3.60875 0,-3.60876 0,-7.21751 0,-10.82627 0,-5.21265 0,-10.42528 0,-15.63794 0,-1.25094 0.25299,-6.27127 0,-7.2175 -0.23255,-0.86983 -0.98322,-1.55524 -1.28644,-2.40583 -0.45566,-1.27825 0.45566,-3.53344 0,-4.81167 -0.30322,-0.85059 -1.05389,-1.53601 -1.28645,-2.40585 -0.416,-1.55599 0.3364,-3.23891 0,-4.81166 -0.26593,-1.24336 -1.0205,-2.36539 -1.28644,-3.60875 -0.1682,-0.78638 0,-1.6039 0,-2.40584 0,-2.00486 0,-4.00972 0,-6.0146 0,-5.21263 0,-10.42527 0,-15.63792 0,-5.21264 0,-10.42529 0,-15.63793 0,-0.40097 0,-0.80195 0,-1.20292 0,-0.40097 -0.30322,-0.91939 0,-1.20292 0.30322,-0.28353 0.98322,0.28353 1.28644,0 0.30956,-0.28945 -0.30955,-4.52221 0,-4.81166 0.30322,-0.28354 0.98323,0.28353 1.28645,0 0.64322,-0.60146 -0.64322,-3.0073 0,-3.60876 0.30322,-0.28353 0.85764,0 1.28644,0"
     id="path4586-2-1"
     inkscape:connector-curvature="0" />
  <path
     style="stroke-width:0.1;stroke-miterlimit:4;stroke-dasharray:0.4, 0.4;stroke-dashoffset:0"
     id="path3056-7"
     d="m 375.2228,72.408556 c 0,-2.74795 0,-5.49589 0,-8.24384 0,-2.56009 0,-5.12017 0,-7.68026 0,-2.41387 0,-4.82773 0,-7.2416 -0.0272,-0.0558 -0.29928,-6.48801 1.69958,-1.97307 0.73445,1.85544 1.50957,3.6987 2.18636,5.57817 0.80142,1.6888 1.55216,3.38077 2.501,4.99467 1.17585,2.10047 2.2476,4.25548 3.38079,6.37875 0.94309,1.97163 2.08045,3.87541 3.53598,5.51256 1.05177,0.90059 0.8849,-0.70204 1.00772,-1.56013 0.26087,-2.2515 0.20485,-4.47744 -0.1638,-6.70692 -0.29467,-2.46909 -1.04385,-4.83956 -1.52696,-7.27221 -0.37189,-2.02286 -0.46978,-4.07871 -0.54034,-6.12961 0,0 1.20411,-0.0413 1.20411,-0.0413 l 0,0 c 0.0679,1.98612 0.16025,3.97726 0.51805,5.93663 0.48389,2.44545 1.23962,4.82833 1.53392,7.31061 0.38642,2.3529 0.44652,4.70471 0.16683,7.07933 -0.28259,1.8543 -0.92685,4.00942 -3.10336,2.18027 -1.50405,-1.71915 -2.71923,-3.67872 -3.69519,-5.74217 -1.12467,-2.10941 -2.19026,-4.24925 -3.35696,-6.33617 -0.98313,-1.67933 -1.77137,-3.43729 -2.59572,-5.19713 -0.66593,-1.86009 -1.43577,-3.68294 -2.16279,-5.51769 -0.3053,-0.78376 -0.35631,-0.46829 0.6156,-1.24311 0.12184,-0.0971 -0.0779,2.5583 0,2.74852 0,2.41387 0,4.82774 0,7.24161 0,2.56008 0,5.12017 0,7.68025 0,2.74795 0,5.4959 0,8.24384 0,0 -1.20482,0 -1.20482,0 z"
     inkscape:connector-curvature="0" />
  <path
     style="stroke-width:0.1;stroke-miterlimit:4;stroke-dasharray:0.4, 0.4;stroke-dashoffset:0"
     id="path3076-0"
     d="m 403.32102,52.356676 c -1.53037,1.35453 -2.86742,3.0849 -2.77001,5.2114 0.63419,1.39793 2.46069,1.56344 3.8213,1.49483 1.48202,-0.36136 2.64193,-1.49448 2.35111,-3.08214 -0.36636,-1.49721 -1.37389,-2.56618 -2.73481,-3.21468 -0.72402,-0.2212 -1.17164,0.005 -1.7713,0.38241 0,0 -0.58559,-1.05294 -0.58559,-1.05294 l 0,0 c 0.98983,-0.50825 1.77901,-0.81624 2.89031,-0.40977 1.71524,0.87016 2.97626,2.22596 3.39791,4.15377 0.18872,2.32504 -1.21527,3.96704 -3.50621,4.42745 -2.08726,0.0462 -4.42915,-0.39626 -5.06736,-2.67796 0.006,-2.53301 1.34695,-4.58299 3.25176,-6.19623 0,0 0.72289,0.96386 0.72289,0.96386 z"
     inkscape:connector-curvature="0" />
  <path
     style="stroke-width:0.1;stroke-miterlimit:4;stroke-dasharray:0.4, 0.4;stroke-dashoffset:0"
     id="path3056-4"
     d="m 353.53605,72.408556 c 0,-2.74795 0,-5.49589 0,-8.24384 0,-2.56009 0,-5.12017 0,-7.68026 0,-2.41387 0,-4.82773 0,-7.2416 -0.0272,-0.0558 -0.29928,-6.48801 1.69958,-1.97307 0.73445,1.85544 1.50957,3.6987 2.18636,5.57817 0.80142,1.6888 1.55216,3.38077 2.501,4.99467 1.17585,2.10047 2.2476,4.25548 3.38079,6.37875 0.94309,1.97163 2.08045,3.87541 3.53598,5.51256 1.05177,0.90059 0.8849,-0.70204 1.00772,-1.56013 0.26087,-2.2515 0.20485,-4.47744 -0.1638,-6.70692 -0.29467,-2.46909 -1.04385,-4.83956 -1.52696,-7.27221 -0.37189,-2.02286 -0.46978,-4.07871 -0.54034,-6.12961 0,0 1.20411,-0.0413 1.20411,-0.0413 l 0,0 c 0.0679,1.98612 0.16025,3.97726 0.51805,5.93663 0.48389,2.44545 1.23962,4.82833 1.53392,7.31061 0.38642,2.3529 0.44652,4.70471 0.16683,7.07933 -0.28259,1.8543 -0.92685,4.00942 -3.10336,2.18027 -1.50405,-1.71915 -2.71923,-3.67872 -3.69519,-5.74217 -1.12467,-2.10941 -2.19026,-4.24925 -3.35696,-6.33617 -0.98313,-1.67933 -1.77137,-3.43729 -2.59572,-5.19713 -0.66593,-1.86009 -1.43577,-3.68294 -2.16279,-5.51769 -0.3053,-0.78376 -0.35631,-0.46829 0.6156,-1.24311 0.12184,-0.0971 -0.0779,2.5583 0,2.74852 0,2.41387 0,4.82774 0,7.24161 0,2.56008 0,5.12017 0,7.68025 0,2.74795 0,5.4959 0,8.24384 0,0 -1.20482,0 -1.20482,0 z"
     inkscape:connector-curvature="0" />
  <path
     style="stroke-width:0.1;stroke-miterlimit:4;stroke-dasharray:0.4, 0.4;stroke-dashoffset:0"
     id="path3070-7"
     d="m 380.39791,543.72856 c -2.67774,-0.55769 -5.35357,-0.80049 -8.07592,-0.57246 -2.21129,0.38901 -3.89072,1.77803 -4.84668,3.78118 -0.24412,1.82823 1.47523,2.29454 2.92116,2.64582 2.29428,0.38972 4.63278,0.35963 6.95229,0.36368 2.42571,-0.10417 4.7763,0.43 6.88876,1.61107 1.96795,1.46868 1.91925,3.31245 1.28217,5.45497 -1.06827,2.5917 -3.34478,3.91057 -5.83962,4.88739 -3.08121,1.28427 -6.36882,1.87412 -9.66808,2.23932 -1.67618,0.0908 -3.10624,-0.17198 -4.50774,-1.07663 0,0 0.67617,-0.99719 0.67617,-0.99719 l 0,0 c 1.10857,0.80666 2.34408,0.906 3.69939,0.87627 3.19593,-0.35175 6.38144,-0.91937 9.36539,-2.16537 2.14519,-0.81945 4.15294,-1.90894 5.12028,-4.1093 0.47846,-1.58664 0.74252,-2.89881 -0.72359,-4.06218 -1.91236,-1.11027 -4.09091,-1.53808 -6.29526,-1.45354 -2.41669,-0.004 -4.85396,0.0254 -7.24188,-0.39952 -2.24302,-0.57238 -4.32977,-1.65974 -3.70917,-4.34936 1.20356,-2.36345 3.15594,-4.01614 5.82684,-4.44731 2.83507,-0.23285 5.62387,0.009 8.41177,0.59174 0,0 -0.23628,1.18142 -0.23628,1.18142 z"
     inkscape:connector-curvature="0" />
  <path
     style="stroke-width:0.1;stroke-miterlimit:4;stroke-dasharray:0.4, 0.4;stroke-dashoffset:0"
     id="path3076-6-7"
     d="m 403.37387,548.21679 c -1.53037,1.35454 -2.86742,3.08491 -2.77001,5.21139 0.63419,1.39793 2.46069,1.56345 3.8213,1.49483 1.48202,-0.36136 2.64193,-1.49448 2.35111,-3.08213 -0.36636,-1.4972 -1.37389,-2.56618 -2.73481,-3.21468 -0.72402,-0.22119 -1.17164,0.005 -1.7713,0.38241 0,0 -0.58559,-1.05293 -0.58559,-1.05293 l 0,0 c 0.98983,-0.50826 1.77901,-0.81624 2.89031,-0.40978 1.71524,0.87016 2.97626,2.22597 3.39791,4.15377 0.18872,2.32504 -1.21527,3.96704 -3.50621,4.42745 -2.08726,0.0462 -4.42915,-0.39626 -5.06736,-2.67796 0.006,-2.53301 1.34695,-4.58298 3.25176,-6.19622 0,0 0.72289,0.96385 0.72289,0.96385 z"
     inkscape:connector-curvature="0" />
  <path
     style="stroke-width:0.1;stroke-miterlimit:4;stroke-dasharray:0.4, 0.4;stroke-dashoffset:0"
     id="path3070-7-7"
     d="m 355.29175,543.72856 c -2.67774,-0.55769 -5.35357,-0.80049 -8.07592,-0.57246 -2.21129,0.38901 -3.89072,1.77803 -4.84668,3.78118 -0.24412,1.82823 1.47523,2.29454 2.92116,2.64582 2.29428,0.38972 4.63278,0.35963 6.95229,0.36368 2.42571,-0.10417 4.7763,0.43 6.88876,1.61107 1.96795,1.46868 1.91925,3.31245 1.28217,5.45497 -1.06827,2.5917 -3.34478,3.91057 -5.83962,4.88739 -3.08121,1.28427 -6.36882,1.87412 -9.66808,2.23932 -1.67618,0.0908 -3.10624,-0.17198 -4.50774,-1.07663 0,0 0.67617,-0.99719 0.67617,-0.99719 l 0,0 c 1.10857,0.80666 2.34408,0.906 3.69939,0.87627 3.19593,-0.35175 6.38144,-0.91937 9.36539,-2.16537 2.14519,-0.81945 4.15294,-1.90894 5.12028,-4.1093 0.47846,-1.58664 0.74252,-2.89881 -0.72359,-4.06218 -1.91236,-1.11027 -4.09091,-1.53808 -6.29526,-1.45354 -2.41669,-0.004 -4.85396,0.0254 -7.24188,-0.39952 -2.24302,-0.57238 -4.32977,-1.65974 -3.70917,-4.34936 1.20356,-2.36345 3.15594,-4.01614 5.82684,-4.44731 2.83507,-0.23285 5.62387,0.009 8.41177,0.59174 0,0 -0.23628,1.18142 -0.23628,1.18142 z"
     inkscape:connector-curvature="0" />
</svg>
